<svg id="Layer_1" data-name="Layer 1" xmlns="http://www.w3.org/2000/svg" viewBox="0 0 73.3 73.3"><g id="Layer_2" data-name="Layer 2"><g id="Layer_1-2" data-name="Layer 1-2"><g id="PSPO_I" data-name="PSPO I"><path d="M36.7,0H0V36.7A36.7,36.7,0,1,0,36.7,0Z" fill="#415870"/><path d="M10.9,11.1H1.5a.22.22,0,0,1-.2-.2V1.7a.22.22,0,0,1,.2-.2h9.4a.22.22,0,0,1,.2.2V11C11.1,11.1,11,11.1,10.9,11.1Z" fill="#b2c88c"/><path d="M9.9,10.1h-7c-.1,0-.1,0-.1-.1V2.8c0-.1,0-.1.1-.1h7c.1,0,.1,0,.1.1v7.3Z" fill="#fff" stroke="#b2c88c" stroke-miterlimit="10" stroke-width="0.5"/><rect x="3.8" y="4.1" width="2.1" height="0.7" fill="#b2c88c"/><rect x="3.8" y="5.7" width="2.3" height="0.9" fill="#b2c88c"/><rect x="3.8" y="7.1" width="2.9" height="0.7" fill="#b2c88c"/><rect x="3.8" y="8.2" width="2.6" height="0.7" fill="#b2c88c"/><polygon points="8.7 9 8 8.3 8 8.3 7.3 9 7.3 4.1 8.7 4.1 8.7 9" fill="#b2c88c"/><circle cx="36.8" cy="36.8" r="34.2" fill="#7fa33f" stroke="#fff" stroke-miterlimit="10" stroke-width="0.58"/><circle cx="36.8" cy="36.8" r="28.8" fill="#fff" stroke="#fff" stroke-miterlimit="10" stroke-width="1.94"/><path d="M11.9,29H16a7.77,7.77,0,0,1,1.6.2A2.85,2.85,0,0,1,19,30a7.1,7.1,0,0,1,1,1.4,5.87,5.87,0,0,1,.4,2.3,8.52,8.52,0,0,1-.3,2.3,3.77,3.77,0,0,1-.9,1.5,3.22,3.22,0,0,1-1.4.8,4.4,4.4,0,0,1-1.6.2H14.3v6H11.8L11.9,29Zm2.5,6.6H16a1.27,1.27,0,0,0,.6-.1.85.85,0,0,0,.5-.3,1.76,1.76,0,0,0,.4-.5,1.41,1.41,0,0,0,.1-.9,1.8,1.8,0,0,0-.2-1,1.21,1.21,0,0,0-.5-.5,1.85,1.85,0,0,0-.7-.2h-2l.2,3.5Z" fill="#7fa33f"/><path d="M27.6,32.8a2.36,2.36,0,0,0-.9-.8,3.55,3.55,0,0,0-1-.2.75.75,0,0,0-.5.1.85.85,0,0,0-.5.3,1,1,0,0,0-.4.5,1.06,1.06,0,0,0-.1.8,1.5,1.5,0,0,0,.4,1.1,3.59,3.59,0,0,0,1,.7c.4.2.8.3,1.2.5a3.53,3.53,0,0,1,1.3.8,4.49,4.49,0,0,1,1,1.3,6.25,6.25,0,0,1,0,4.4,3.91,3.91,0,0,1-1,1.6,7.1,7.1,0,0,1-1.4,1,4.67,4.67,0,0,1-1.7.3,4.55,4.55,0,0,1-2-.5,6.55,6.55,0,0,1-1.8-1.5L23,40.4a3.46,3.46,0,0,0,1,1.1,2.84,2.84,0,0,0,1.2.4,1.27,1.27,0,0,0,.6-.1.85.85,0,0,0,.5-.3,1,1,0,0,0,.4-.5,1.06,1.06,0,0,0,.1-.8,1.5,1.5,0,0,0-.4-1.1,3.59,3.59,0,0,0-1-.7,6.94,6.94,0,0,0-1.3-.5,5.67,5.67,0,0,1-1.3-.8,3.25,3.25,0,0,1-1-1.3,5.22,5.22,0,0,1-.4-2.1,5.7,5.7,0,0,1,.4-2.2,3.91,3.91,0,0,1,1-1.6,3.88,3.88,0,0,1,3-1.3,4.67,4.67,0,0,1,1.7.3,4.81,4.81,0,0,1,1.6,1.2Z" fill="#7fa33f"/><path d="M31.2,29h4.2a9.85,9.85,0,0,1,1.7.2,2.22,2.22,0,0,1,1.3.8,4,4,0,0,1,1,1.5,4.45,4.45,0,0,1,.3,2.3,8.52,8.52,0,0,1-.3,2.3,3.77,3.77,0,0,1-.9,1.5,3.53,3.53,0,0,1-1.3.8,4.68,4.68,0,0,1-1.7.2H33.6v6H31.1Zm2.5,6.6h1.7a2,2,0,0,0,.7-.1.85.85,0,0,0,.5-.3,1.76,1.76,0,0,0,.4-.5,2.92,2.92,0,0,0,.2-.9,1.8,1.8,0,0,0-.2-1,1.21,1.21,0,0,0-.5-.5,1.33,1.33,0,0,0-.7-.3H33.7Z" fill="#7fa33f"/><path d="M40.7,36.8a10,10,0,0,1,.5-3.4,9.06,9.06,0,0,1,1.3-2.6,5.26,5.26,0,0,1,2-1.6,4.34,4.34,0,0,1,2.5-.5,7.42,7.42,0,0,1,2.5.5,6.42,6.42,0,0,1,2,1.6,9.06,9.06,0,0,1,1.3,2.6,9.91,9.91,0,0,1,.4,3.4,10,10,0,0,1-.5,3.4,9.06,9.06,0,0,1-1.3,2.6,6.68,6.68,0,0,1-2,1.7,4.34,4.34,0,0,1-2.5.5,7.42,7.42,0,0,1-2.5-.5,6.48,6.48,0,0,1-2-1.7,9.06,9.06,0,0,1-1.3-2.6A13.17,13.17,0,0,1,40.7,36.8Zm2.6,0a13.55,13.55,0,0,0,.2,2,4.59,4.59,0,0,0,.7,1.6,3.46,3.46,0,0,0,1.1,1,3,3,0,0,0,2.9,0,5.24,5.24,0,0,0,1.1-1,4.59,4.59,0,0,0,.7-1.6,9,9,0,0,0,0-4,4.59,4.59,0,0,0-.7-1.6,3.46,3.46,0,0,0-1.1-1,3,3,0,0,0-2.9,0,5.24,5.24,0,0,0-1.1,1,4.59,4.59,0,0,0-.7,1.6A13.55,13.55,0,0,0,43.3,36.8Z" fill="#7fa33f"/><path d="M59.4,29h2.5V44.6H59.4Z" fill="#7fa33f"/><path d="M23.5,54.3a1,1,0,0,0-.9-.4c-.4,0-.8.2-.8.6,0,1,2.3.4,2.3,2.2,0,1-.8,1.5-1.8,1.5a2,2,0,0,1-1.6-.7l.6-.7a1.23,1.23,0,0,0,1,.5c.4,0,.9-.2.9-.7,0-1-2.3-.5-2.3-2.2a1.61,1.61,0,0,1,1.8-1.5,2.39,2.39,0,0,1,1.4.5Z" fill="#415870"/><path d="M27.1,55.8a.86.86,0,0,0-.6-.3,1.06,1.06,0,0,0-1,.9v.1a1,1,0,0,0,1,1,.6.6,0,0,0,.6-.3l.5.6a1.85,1.85,0,0,1-1.2.5,1.8,1.8,0,0,1,0-3.6,1.66,1.66,0,0,1,1.2.5Z" fill="#415870"/><path d="M28.3,54.8h.8v.5h0a1,1,0,0,1,1-.6h.3v.8c-.1,0-.3-.1-.4,0a.82.82,0,0,0-.9.8v1.9h-.8V54.8Z" fill="#415870"/><path d="M34,58.2h-.8v-.6h0a1.1,1.1,0,0,1-1,.6c-.9,0-1.2-.6-1.2-1.3v-2h.8v1.6c0,.3,0,1,.6,1a.73.73,0,0,0,.8-.8V54.9H34v3.3Z" fill="#415870"/><path d="M34.8,54.8h.8v.5h0a1.13,1.13,0,0,1,2,0,1.15,1.15,0,0,1,1.1-.6c.9,0,1.2.6,1.2,1.4v2h-.8V56.2c0-.4-.1-.8-.6-.8a.71.71,0,0,0-.7.8V58H37V56.1c0-.4-.2-.7-.5-.7a1,1,0,0,0-.8.8V58H35l-.2-3.2Z" fill="#415870"/><path d="M41.1,57.5a.45.45,0,0,1,.4.3c0,.1-.2.4-.3.4a.45.45,0,0,1-.4-.3h0C40.8,57.7,40.9,57.5,41.1,57.5Z" fill="#415870"/><path d="M43.7,54.9a1.61,1.61,0,0,1,1.6,1.7,1.55,1.55,0,0,1-1.7,1.6A1.58,1.58,0,0,1,42,56.6a1.73,1.73,0,0,1,1.5-1.7Zm0,3A1.23,1.23,0,0,0,45,56.8v-.2a1.25,1.25,0,0,0-2.5.1,1.38,1.38,0,0,0,1.2,1.2Z" fill="#415870"/><path d="M46.2,55.8v-.9h.4v.5a1.45,1.45,0,0,1,1-.7h.2v.4h-.2a1.09,1.09,0,0,0-1.1.9v2h-.4l.1-2.2Z" fill="#415870"/><path d="M51.3,58c0,1.6-1,1.8-1.7,1.8a1.68,1.68,0,0,1-1.5-.7l.3-.3a1.56,1.56,0,0,0,1.2.6A1.32,1.32,0,0,0,51,58.2v-.8h0a1.43,1.43,0,0,1-1.2.6,1.6,1.6,0,1,1,0-3.2h0a1.43,1.43,0,0,1,1.2.6h0V55h.4Zm-1.6-2.7A1.25,1.25,0,1,0,51,56.5a1.18,1.18,0,0,0-1.3-1.2Z" fill="#415870"/><path d="M51.7,54.4h-.2v-.2H52v.2h-.2v.5h-.2S51.6,54.4,51.7,54.4Zm.4-.2h.2l.2.4.2-.4h.2v.7h-.2v-.4h0l-.2.4h-.1l-.2-.4h0v.4H52Z" fill="#415870"/><path d="M37,13.4l-.5.1.5-.1" fill="#415870"/><path d="M34.8,19.6v.3c0,.1,0-.1-.1-.1a.31.31,0,0,0,.1-.2" fill="#415870"/><path d="M35.2,21.1a.76.76,0,0,0-.2-.4c.1.2.2.3.2.4h0" fill="#415870"/><path d="M42.2,21.3h0c0-.1.1-.2.2-.3h0c-.1.1-.2.2-.2.3" fill="#415870"/><path d="M37.4,14.2a2.88,2.88,0,0,1,1.3-.1c.5,0,.9.1,1.3.1a4,4,0,0,0-1.5-.3c-.5-.1-.8,0-1-.1s.2-.2.8-.2a2.2,2.2,0,0,1,.8.1,1.7,1.7,0,0,0,.7.1l-.2-.1a.37.37,0,0,0,.3.1.6.6,0,0,0-.4-.1c-.1,0-.2-.1-.3-.1h.2a4.25,4.25,0,0,0-1.1-.2c-.5,0-.8.1-1.2.1a5.86,5.86,0,0,1,2.3.1,6.16,6.16,0,0,1,4.2,2.8,7.32,7.32,0,0,1,.8,2.5,6.49,6.49,0,0,1-2,5.1,4.23,4.23,0,0,1-.7.5,3.55,3.55,0,0,1-.9.4,7,7,0,0,1-3.2.5,5.72,5.72,0,0,1-3-1.5,6.72,6.72,0,0,1-1.9-3,.64.64,0,0,1,0-.6h.1c.1,0,.1.2.2.5a6.08,6.08,0,0,0,1.5,2.4s-.2-.1-.2-.2-.2-.2-.3-.3a5,5,0,0,0,.7.8,5.55,5.55,0,0,0,.8.6,10.63,10.63,0,0,1-1.1-.9,5.83,5.83,0,0,0,1.5,1.1,6.36,6.36,0,0,0,1.8.6,1.85,1.85,0,0,1,.7.2,1.1,1.1,0,0,0,.8,0,7.42,7.42,0,0,1-2.5-.5,6.61,6.61,0,0,1-2-1.4h0a5.67,5.67,0,0,1-1.2-1.8,2.19,2.19,0,0,0,.3.5,7.35,7.35,0,0,1-.7-3,5,5,0,0,0,.5,2.1,7.61,7.61,0,0,0,1.2,1.9,4.39,4.39,0,0,0,1.8,1.2,5.37,5.37,0,0,0,2.1.5,6.88,6.88,0,0,1-1.3-.2,2.22,2.22,0,0,1-1.1-.5,5.5,5.5,0,0,0,3.8.5l-.3.1a2.66,2.66,0,0,0,1.2-.3c.4-.2.7-.4,1.1-.6,0-.1.1-.1.2-.1l-.2.1a7.22,7.22,0,0,1-2,.9,4.18,4.18,0,0,0,1-.4,3.09,3.09,0,0,0-.8.2,4.87,4.87,0,0,1-1.2.1,4.07,4.07,0,0,0,1.8-.5,5.65,5.65,0,0,1-2.6.2,6.55,6.55,0,0,0,1.4,0,5.84,5.84,0,0,0,2.2-.8h0a.31.31,0,0,0,.2-.1l.8-.6a1.79,1.79,0,0,0,.5-.7l.1-.1h0a3.13,3.13,0,0,0,.5-1,5.27,5.27,0,0,0,.3-1.2,2.72,2.72,0,0,0,0-.9v-.8c0,.1,0,.4.1.5v0a3.72,3.72,0,0,1-.2,1.8,3,3,0,0,1-.8,1.6.31.31,0,0,1,.1-.2c-.1.1-.1.2-.2.4a6.47,6.47,0,0,1-.8.9l.2-.2a6.42,6.42,0,0,1-1.3,1,4.28,4.28,0,0,1-1.6.5,6.15,6.15,0,0,1-3-.5,4.92,4.92,0,0,0,1.7.6,5.28,5.28,0,0,1-2.2-.8,4,4,0,0,1-1.6-1.8,1.79,1.79,0,0,0,.7.5s-.2-.5,0-.2a9,9,0,0,0,1,.9.78.78,0,0,0,.8.2.7.7,0,0,1-.2-.4c0-.2-.2-.4,0-.3a3.7,3.7,0,0,0,1.1.5l.5.1h.1A2.85,2.85,0,0,0,40,23h.5a.31.31,0,0,0,.2-.1,6.89,6.89,0,0,0,.8-.3c.2,0,.3-.1.5-.2m-.5.1a2.7,2.7,0,0,0,.8-.7c.1-.1.2-.2.3-.2.1-.3.2-.5.3-.8s.2-.6.3-1h0a1.39,1.39,0,0,0,0-.9v-1l-.1-.1c0-.2-.1-.3-.2-.5s-.1-.3-.2-.5a5.26,5.26,0,0,0-1.2-1.4v-.1c-.1,0-.2-.1-.3-.1h0c-.1,0-.2-.1-.3-.1a.31.31,0,0,0-.2-.1h-.2l-.1-.1a1,1,0,0,0-.9-.2h-1a2.2,2.2,0,0,0-.8-.1" fill="#415870"/><path d="M33,17.5a5.09,5.09,0,0,1,.7-1.7,5.26,5.26,0,0,1,1.2-1.4,9,9,0,0,0-.9,1,2.34,2.34,0,0,1,.7-.7,5.55,5.55,0,0,1,.8-.6c-.1.1-.2.2-.3.2l-.2.2a7,7,0,0,0-1.5,1.9,8.44,8.44,0,0,0-.6,2.4,1.1,1.1,0,0,1,0-.8,4.33,4.33,0,0,0,.1-.5" fill="#415870"/><path d="M33.3,19.5v.2a4.79,4.79,0,0,0,.7,2,5.36,5.36,0,0,1-.5-1.1,3.59,3.59,0,0,1-.2-1.1" fill="#415870"/><path d="M33.4,18.8a3.08,3.08,0,0,1,.6-1.9,5.31,5.31,0,0,0-.6,1.9" fill="#415870"/><path d="M42.3,21.1h0V21c.1-.2.3-.4.3-.6v.1c0,.1-.1.1-.2.2s0,.3-.1.4" fill="#415870"/><path d="M39.8,22.8c-.1,0-.1,0-.2.1h-1a4.53,4.53,0,0,0,1.6-.3.52.52,0,0,1-.4.2" fill="#415870"/><path d="M42.7,20.3a4.65,4.65,0,0,0,.3-.9c0,.4,0,.7-.3.9" fill="#415870"/><path d="M36.2,22.1c0-.1-.2-.2-.2-.3a3.62,3.62,0,0,0,1.8,1h0a3.55,3.55,0,0,1-.9-.4,2.12,2.12,0,0,1-.7-.3" fill="#415870"/><path d="M34.3,21.6v-.1c.1.2.3.3.4.5-.1-.1-.3-.2-.4-.4" fill="#415870"/><path d="M33.7,19.5a3.3,3.3,0,0,1,0-1.4,2.63,2.63,0,0,1,.7-1.5,4.09,4.09,0,0,0-.7,2.9" fill="#415870"/><path d="M35.7,23l-.1-.1.3.1h-.2" fill="#415870"/><path d="M34.8,18a.76.76,0,0,1,.2-.4,1.06,1.06,0,0,1-.2.5V18" fill="#415870"/><path d="M36.2,11.2a5,5,0,0,1,1.2.8,4.44,4.44,0,0,1,.8,1.1,5.5,5.5,0,0,0-.7-.9c.2.2.3.4.5.6a2.12,2.12,0,0,1,.3.7c-.1-.1-.1-.2-.2-.3a.22.22,0,0,0-.2-.2,5.26,5.26,0,0,0-1.2-1.4,3.81,3.81,0,0,0-1.7-.8,1.27,1.27,0,0,1,.6.1c.2.2.4.2.6.3" fill="#189ab6"/><path d="M34.5,11.1h-.2a9.85,9.85,0,0,0-1.7.2,2.92,2.92,0,0,1,.9-.2,1.7,1.7,0,0,1,1,0" fill="#189ab6"/><path d="M35.1,11.3a2.67,2.67,0,0,1,1.4.7,3.69,3.69,0,0,0-1.4-.7" fill="#189ab6"/><path d="M32,17.8h0a1.76,1.76,0,0,1,.5.4h-.1a.35.35,0,0,0-.2-.1c0-.2-.1-.2-.2-.3" fill="#189ab6"/><path d="M30.3,14.6h0v-.1h0s.1,0,0,.1h0" fill="#189ab6"/><path d="M31.9,17.6h0c.1.1.2.1.2.2h0c-.1,0-.1-.1-.2-.2" fill="#189ab6"/><path d="M31.1,15.6v-.1a.9.9,0,0,1,.1-.5v-.3a2.44,2.44,0,0,0,0,1.2c0-.1-.1-.2-.1-.3" fill="#189ab6"/><path d="M38,15a3.4,3.4,0,0,1-.1,1c-.1.4-.2.6-.3,1a3.7,3.7,0,0,0,.5-1.1,1.85,1.85,0,0,1,.2-.7c.1-.1.1.2,0,.6l-.2.6c-.1.2-.1.3-.2.5l.1-.1c-.1.1-.1.1-.1.2.1-.1.1-.2.2-.3a.22.22,0,0,1,.2-.2v.1a1.4,1.4,0,0,0,.3-.9c.1-.3.1-.6.2-.9a5.84,5.84,0,0,1-.4,1.8,4.57,4.57,0,0,1-1.1,1.6,4.18,4.18,0,0,1-1.8,1.1,4.42,4.42,0,0,1-2,.2,5.1,5.1,0,0,1-3.6-2.2,1.06,1.06,0,0,0-.2-.5,2,2,0,0,1-.1-.8,4.84,4.84,0,0,1,.1-2.4,4.53,4.53,0,0,1,1.5-2.1,4.59,4.59,0,0,1,2.5-1h.5v.1a1.75,1.75,0,0,0-.5.1,5,5,0,0,0-2,.8.35.35,0,0,1,.2-.1c.1,0,.2-.1.3-.2a2.51,2.51,0,0,0-.7.4c-.2.2-.4.3-.6.5a3.11,3.11,0,0,1,.9-.7,2.93,2.93,0,0,0-1,.9,8.34,8.34,0,0,0-.8,1.2c-.1.2-.2.3-.2.5a1.27,1.27,0,0,0-.1.6,4.17,4.17,0,0,1,.8-1.8,6.2,6.2,0,0,1,1.4-1.4h0a3.51,3.51,0,0,1,1.4-.6l-.5.1a6,6,0,0,1,2.3-.1,4.88,4.88,0,0,0-1.7.1,3.39,3.39,0,0,0-1.5.6,3.45,3.45,0,0,0-1.2,1.2,4.42,4.42,0,0,0-.6,1.6,3.55,3.55,0,0,1,.4-.9,3.51,3.51,0,0,1,.5-.8,5.58,5.58,0,0,0-1,2.8l.2-.2v.9c.1.3.2.7.3,1v0a8.47,8.47,0,0,1-.4-1.7,2.2,2.2,0,0,0,.1.8V14.5a2.25,2.25,0,0,0,.1,1.4,4.42,4.42,0,0,1,.2-2,3.75,3.75,0,0,0-.1,1.1,3.81,3.81,0,0,0,.3,1.8h-.1v.1c.1.2.2.5.4.6s.3.3.5.5l.1.1h0a1.79,1.79,0,0,0,.7.5,9.22,9.22,0,0,1,.8.5,1.48,1.48,0,0,0,.7.1h.3a5,5,0,0,1-1.3-.4,4.44,4.44,0,0,1-1.1-.8.1.1,0,0,1,.1.1c-.1,0-.1-.1-.2-.1a1.79,1.79,0,0,1-.5-.7.35.35,0,0,1,.1.2,2.22,2.22,0,0,1-.5-1.1,2.88,2.88,0,0,1-.1-1.3,5.28,5.28,0,0,1,.8-2.2,2.59,2.59,0,0,0-.7,1.1,3.91,3.91,0,0,1,1-1.6,4.92,4.92,0,0,1,1.5-1c-.2.1-.5.3-.5.4s.3-.1.2,0a5.55,5.55,0,0,0-.8.6.86.86,0,0,0-.3.6c0,.1.2-.1.4-.1s.3-.1.2,0a2.18,2.18,0,0,0-.5.8l-.1.3v.1a3.55,3.55,0,0,0-.2,1v.4a2,2,0,0,0,.1.7v.4h0a2.51,2.51,0,0,0,.4.7l.1.3a2.09,2.09,0,0,1,.6.4,2.51,2.51,0,0,0,.7.4h0a1.85,1.85,0,0,0,.7.2H35a.6.6,0,0,0,.4-.1,2.4,2.4,0,0,0,1.2-.7h0c0-.1.1-.1.2-.2h0c0-.1.1-.1.2-.2l.2-.1v-.1h0a.86.86,0,0,0,.3-.6,2.35,2.35,0,0,0,.2-.8,3.78,3.78,0,0,1,.1-.8" fill="#189ab6"/><path d="M32.5,18.1c.2.1.4.3.6.4-.2,0-.4-.2-.6-.4" fill="#189ab6"/><path d="M32.2,12.9a.37.37,0,0,1,.3-.1,2.34,2.34,0,0,0-1,1.2h0a2.09,2.09,0,0,1,.4-.6.85.85,0,0,1,.3-.5" fill="#189ab6"/><path d="M32.8,11.6h0c-.1.1-.3.1-.4.2.1-.1.3-.1.4-.2" fill="#189ab6"/><path d="M34.6,11.4a3.55,3.55,0,0,1,1,.2,2.54,2.54,0,0,1,1,.8,3,3,0,0,0-2-1" fill="#189ab6"/><path d="M33.1,12.4c.1,0,.2-.1.3-.1-.1,0-.2.1-.3.1h0" fill="#189ab6"/><path d="M31.6,12.4l.1-.1c0,.1-.1.1-.1.2v-.1" fill="#189ab6"/><path d="M34.3,12.2H34c.1.1.2,0,.3,0h0" fill="#189ab6"/><path d="M35.5,12.6l.3.1-.3-.1h0" fill="#189ab6"/></g></g></g></svg>