<svg xmlns="http://www.w3.org/2000/svg" width="551" height="625" viewBox="0 0 551 625" version="1.1"><path d="M 381.958 126.750 L 377.500 131.500 382.481 127 C 385.221 124.525, 387.659 122.388, 387.898 122.250 C 388.137 122.112, 387.902 122, 387.375 122 C 386.848 122, 384.410 124.138, 381.958 126.750 M 308 138.500 C 305.571 140.975, 303.809 143, 304.084 143 C 304.359 143, 306.571 140.975, 309 138.500 C 311.429 136.025, 313.191 134, 312.916 134 C 312.641 134, 310.429 136.025, 308 138.500 M 361.462 146.250 L 356.500 151.500 361.750 146.538 C 364.637 143.808, 367 141.446, 367 141.288 C 367 140.541, 366.074 141.372, 361.462 146.250 M 315.573 146.906 L 312.645 150.500 316.021 147.282 C 317.878 145.512, 319.196 143.895, 318.949 143.688 C 318.702 143.481, 317.183 144.929, 315.573 146.906 M 228.980 153.750 L 219.500 163.500 229.250 154.020 C 238.306 145.215, 239.455 144, 238.730 144 C 238.582 144, 234.194 148.387, 228.980 153.750 M 229.516 169 L 214.532 184.500 229.972 169.290 C 238.464 160.924, 245.207 153.949, 244.956 153.790 C 244.705 153.630, 237.757 160.475, 229.516 169 M 286.966 158.750 L 281.500 164.500 287.250 159.034 C 292.592 153.956, 293.458 153, 292.716 153 C 292.560 153, 289.972 155.588, 286.966 158.750 M 151.986 169.750 L 138.500 183.500 152.250 170.014 C 159.813 162.597, 166 156.409, 166 156.264 C 166 155.547, 164.514 156.977, 151.986 169.750 M 173 164.500 C 170.571 166.975, 168.809 169, 169.084 169 C 169.359 169, 171.571 166.975, 174 164.500 C 176.429 162.025, 178.191 160, 177.916 160 C 177.641 160, 175.429 162.025, 173 164.500 M 340.462 166.250 L 335.500 171.500 340.750 166.538 C 343.637 163.808, 346 161.446, 346 161.288 C 346 160.541, 345.074 161.372, 340.462 166.250 M 171.971 174.750 L 165.500 181.500 172.250 175.029 C 175.963 171.470, 179 168.432, 179 168.279 C 179 167.543, 177.982 168.480, 171.971 174.750 M 227.481 180.250 L 217.500 190.500 227.750 180.519 C 233.387 175.029, 238 170.417, 238 170.269 C 238 169.545, 236.752 170.730, 227.481 180.250 M 312 178.500 C 307.903 182.625, 304.775 186, 305.050 186 C 305.325 186, 308.903 182.625, 313 178.500 C 317.097 174.375, 320.225 171, 319.950 171 C 319.675 171, 316.097 174.375, 312 178.500 M 264.966 179.750 L 259.500 185.500 265.250 180.034 C 270.592 174.956, 271.458 174, 270.716 174 C 270.560 174, 267.972 176.588, 264.966 179.750 M 183.050 182.447 L 178.600 187.500 183.502 182.785 C 186.198 180.192, 188.200 177.918, 187.952 177.732 C 187.703 177.547, 185.497 179.668, 183.050 182.447 M 269.987 191.750 L 255.500 206.500 270.250 192.013 C 278.363 184.045, 285 177.408, 285 177.263 C 285 176.547, 283.445 178.048, 269.987 191.750 M 318.966 186.750 L 313.500 192.500 319.250 187.034 C 324.592 181.956, 325.458 181, 324.716 181 C 324.560 181, 321.972 183.588, 318.966 186.750 M 189.980 191.750 L 180.500 201.500 190.250 192.020 C 195.613 186.806, 200 182.418, 200 182.270 C 200 181.545, 198.785 182.694, 189.980 191.750 M 227.984 199.750 L 216.500 211.500 228.250 200.016 C 239.164 189.350, 240.454 188, 239.734 188 C 239.587 188, 234.300 193.287, 227.984 199.750 M 136.483 202.250 L 125.500 213.500 136.750 202.517 C 142.938 196.476, 148 191.414, 148 191.267 C 148 190.546, 146.684 191.801, 136.483 202.250 M 147.971 199.750 L 141.500 206.500 148.250 200.029 C 151.963 196.470, 155 193.432, 155 193.279 C 155 192.543, 153.982 193.480, 147.971 199.750 M 242.462 201.250 L 237.500 206.500 242.750 201.538 C 247.628 196.926, 248.459 196, 247.712 196 C 247.554 196, 245.192 198.363, 242.462 201.250 M 281 208.500 C 276.903 212.625, 273.775 216, 274.050 216 C 274.325 216, 277.903 212.625, 282 208.500 C 286.097 204.375, 289.225 201, 288.950 201 C 288.675 201, 285.097 204.375, 281 208.500 M 297.462 207.250 L 292.500 212.500 297.750 207.538 C 300.637 204.808, 303 202.446, 303 202.288 C 303 201.541, 302.074 202.372, 297.462 207.250 M 152.978 213.750 L 144.500 222.500 153.250 214.022 C 161.377 206.148, 162.456 205, 161.728 205 C 161.578 205, 157.641 208.938, 152.978 213.750 M 256.479 214.250 L 247.500 223.500 256.750 214.521 C 265.341 206.181, 266.455 205, 265.729 205 C 265.580 205, 261.418 209.162, 256.479 214.250 M 103.971 216.750 L 97.500 223.500 104.250 217.029 C 107.963 213.470, 111 210.432, 111 210.279 C 111 209.543, 109.982 210.480, 103.971 216.750 M 191.469 217.250 L 185.500 223.500 191.750 217.531 C 197.556 211.987, 198.458 211, 197.719 211 C 197.564 211, 194.751 213.813, 191.469 217.250 M 222.437 220.250 L 219.500 223.500 222.750 220.563 C 225.779 217.825, 226.460 217, 225.687 217 C 225.515 217, 224.052 218.463, 222.437 220.250 M 445.866 223.267 C 446.289 223.689, 458.304 223.914, 472.567 223.766 L 498.500 223.498 471.799 222.999 C 457.113 222.724, 445.443 222.845, 445.866 223.267 M 61.807 223.747 C 68.576 223.921, 79.376 223.920, 85.807 223.746 C 92.238 223.572, 86.700 223.431, 73.500 223.431 C 60.300 223.432, 55.038 223.574, 61.807 223.747 M 118.264 223.718 C 119.784 223.947, 122.034 223.941, 123.264 223.704 C 124.494 223.467, 123.250 223.279, 120.500 223.286 C 117.750 223.294, 116.744 223.488, 118.264 223.718 M 146.728 223.722 C 148.503 223.943, 151.653 223.946, 153.728 223.730 C 155.802 223.513, 154.350 223.333, 150.500 223.328 C 146.650 223.324, 144.952 223.501, 146.728 223.722 M 178.264 223.718 C 179.784 223.947, 182.034 223.941, 183.264 223.704 C 184.494 223.467, 183.250 223.279, 180.500 223.286 C 177.750 223.294, 176.744 223.488, 178.264 223.718 M 207.776 223.733 C 210.128 223.945, 213.728 223.942, 215.776 223.727 C 217.824 223.512, 215.900 223.339, 211.500 223.343 C 207.100 223.346, 205.424 223.522, 207.776 223.733 M 240.264 223.718 C 241.784 223.947, 244.034 223.941, 245.264 223.704 C 246.494 223.467, 245.250 223.279, 242.500 223.286 C 239.750 223.294, 238.744 223.488, 240.264 223.718 M 269.250 223.728 C 271.313 223.944, 274.688 223.944, 276.750 223.728 C 278.813 223.513, 277.125 223.336, 273 223.336 C 268.875 223.336, 267.188 223.513, 269.250 223.728 M 239.355 264.500 C 239.352 269.450, 239.521 271.601, 239.731 269.280 C 239.940 266.959, 239.943 262.909, 239.736 260.280 C 239.530 257.651, 239.358 259.550, 239.355 264.500 M 394.355 264.500 C 394.352 269.450, 394.521 271.601, 394.731 269.280 C 394.940 266.959, 394.943 262.909, 394.736 260.280 C 394.530 257.651, 394.358 259.550, 394.355 264.500 M 269.455 312 C 269.455 333.725, 269.587 342.613, 269.749 331.750 C 269.910 320.887, 269.910 303.112, 269.749 292.250 C 269.587 281.387, 269.455 290.275, 269.455 312 M 368.710 294.737 L 387.920 295.043 388.270 302.771 L 388.621 310.500 388.561 302.500 L 388.500 294.500 369 294.466 L 349.500 294.432 368.710 294.737 M 395.355 342.500 C 395.352 347.450, 395.521 349.601, 395.731 347.280 C 395.940 344.959, 395.943 340.909, 395.736 338.280 C 395.530 335.651, 395.358 337.550, 395.355 342.500 M 50 422.375 L 50 439.751 75.750 454.240 C 89.912 462.209, 140.914 490.851, 189.086 517.888 L 276.671 567.046 387.336 503.809 L 498 440.573 498 422.786 L 498 405 274 405 L 50 405 50 422.375 M 195.994 422.870 C 187.153 425.786, 183 430.755, 183 438.418 C 183 447.722, 186.846 451.250, 201.469 455.358 C 212.727 458.521, 215.445 461.555, 211 466 C 207.312 469.688, 194.135 468.147, 188.907 463.416 C 187.397 462.049, 186.940 462.288, 184.018 465.978 C 180.192 470.809, 180.593 471.669, 188.281 475.129 C 192.569 477.059, 195.194 477.480, 203 477.489 C 211.545 477.499, 212.964 477.227, 217.120 474.784 C 222.693 471.508, 225 467.175, 225 459.981 C 225 455.277, 224.632 454.402, 221.250 451.068 C 217.646 447.516, 215.769 446.725, 202.295 443.083 C 195.213 441.169, 193.231 437.769, 197 434 C 199.909 431.091, 207.305 431.312, 213.581 434.496 C 216.286 435.869, 218.551 436.994, 218.614 436.996 C 218.677 436.998, 219.999 435.166, 221.552 432.925 C 224.727 428.344, 224.733 428.355, 217.167 424.844 C 212.426 422.644, 200.149 421.499, 195.994 422.870 M 244.147 425.750 C 240.995 433.656, 226 475.276, 226 476.116 C 226 476.682, 228.606 476.970, 232.171 476.798 L 238.341 476.500 240.254 470.750 L 242.167 465 252.500 465 L 262.833 465 264.746 470.750 L 266.659 476.500 273.429 476.798 C 277.475 476.976, 280.058 476.708, 279.849 476.132 C 279.657 475.602, 275.225 463.433, 270 449.090 L 260.500 423.012 252.871 423.006 C 245.479 423, 245.209 423.085, 244.147 425.750 M 284 450 L 284 477 290 477 L 296 477 296 466 L 296 455 307 455 L 318 455 318 450.500 L 318 446 307 446 L 296 446 296 439.500 L 296 433 308.500 433 L 321 433 321 428 L 321 423 302.500 423 L 284 423 284 450 M 364.270 428.715 C 361.596 429.217, 358 433.510, 358 436.201 C 358 443.832, 367.232 447.859, 372.545 442.545 C 378.379 436.712, 372.653 427.143, 364.270 428.715 M 362.455 432.455 C 359.459 435.450, 359.327 438.327, 362.059 441.059 C 363.465 442.465, 365.120 443.020, 367.278 442.809 C 373.371 442.213, 374.984 433.680, 369.477 431.171 C 365.903 429.543, 365.246 429.663, 362.455 432.455 M 364.116 437.250 C 364.180 439.587, 364.438 440.712, 364.689 439.750 C 365.250 437.604, 366.586 437.479, 367.362 439.500 C 368.420 442.257, 369.573 441.042, 369.735 437 C 369.886 433.202, 369.745 433, 366.947 433 C 364.128 433, 364.005 433.185, 364.116 437.250 M 249.201 444.836 C 247.441 450.208, 246 454.917, 246 455.301 C 246 455.686, 248.925 456, 252.500 456 C 257.198 456, 259 455.636, 259 454.688 C 259 453.410, 253.329 435.996, 252.712 435.379 C 252.542 435.208, 250.962 439.464, 249.201 444.836 M 336.310 439.063 C 327.735 440.725, 323.149 446.262, 322.265 456.019 C 321.020 469.743, 328.842 478.024, 343 477.972 C 347.801 477.955, 354.643 475.352, 356.827 472.713 C 357.969 471.333, 357.697 470.701, 354.872 468.177 L 351.589 465.244 348.914 467.222 C 344.922 470.173, 339.139 469.863, 336.284 466.544 C 335.028 465.084, 334 463.464, 334 462.944 C 334 462.402, 339.318 462, 346.481 462 C 358.640 462, 358.977 461.941, 359.534 459.719 C 360.339 456.513, 358.311 448.246, 355.884 444.837 C 352.233 439.710, 344.593 437.456, 336.310 439.063 M 336.073 449.635 C 332.425 454.273, 333.199 455.126, 340.750 454.796 C 347.288 454.509, 347.492 454.421, 347.231 452 C 346.654 446.638, 339.605 445.144, 336.073 449.635 M 271.500 488.874 C 259.686 491.991, 254 500.959, 254 516.477 C 254 525.617, 255.105 529.922, 258.690 534.751 C 262.354 539.686, 266.420 541.388, 274.500 541.367 C 286.934 541.334, 293.639 536.162, 294.650 525.820 C 295.306 519.119, 292.202 512.650, 286.991 509.855 C 282.234 507.304, 273.534 507.377, 269.226 510.004 C 267.425 511.102, 265.785 512, 265.582 512 C 265.379 512, 265.642 510.087, 266.167 507.750 C 268.012 499.536, 274.974 495.613, 283.480 497.994 C 285.997 498.699, 288.255 499.078, 288.497 498.837 C 288.738 498.595, 289.635 496.725, 290.489 494.682 C 292.037 490.976, 292.034 490.963, 289.303 489.925 C 285.594 488.515, 275.189 487.901, 271.500 488.874 M 271 517.294 C 266.990 519.322, 265.631 523.181, 267.419 527.460 C 270.555 534.966, 280.639 534.269, 282.612 526.411 C 283.455 523.053, 281.378 518.493, 278.385 517.130 C 275.249 515.701, 274.099 515.726, 271 517.294" stroke="none" fill="#8acbce" fill-rule="evenodd"/><path d="M 151.752 100.758 L 28.004 170.500 28.002 312.098 L 28 453.696 151.061 523.848 C 218.745 562.432, 274.657 593.994, 275.311 593.986 C 275.965 593.978, 331.400 562.355, 398.500 523.713 L 520.500 453.455 520.753 311.801 L 521.007 170.148 399.934 100.962 C 333.343 62.910, 278.104 31.605, 277.180 31.397 C 276.256 31.188, 219.813 62.401, 151.752 100.758 M 333.479 172.478 L 280.500 222.970 274 222.974 L 267.500 222.978 279 211.700 C 285.325 205.498, 299.242 191.988, 309.927 181.679 L 329.355 162.934 325.984 155.967 C 324.130 152.135, 322.361 149, 322.052 149 C 321.743 149, 304.844 165.650, 284.500 186 C 247.993 222.517, 247.458 222.999, 243.505 222.951 L 239.500 222.901 279.498 183.531 L 319.495 144.160 316.719 138.499 L 313.942 132.838 307.927 138.407 C 304.619 141.470, 283.427 161.644, 260.834 183.238 L 219.756 222.500 212.628 222.729 L 205.500 222.959 230.468 198.477 L 255.436 173.996 251.684 166.412 L 247.932 158.829 223.707 183.664 C 210.383 197.324, 196.374 211.763, 192.577 215.750 C 186.210 222.435, 185.354 223, 181.596 223 L 177.520 223 196.011 204.250 C 206.182 193.938, 221.380 178.504, 229.786 169.953 L 245.070 154.407 242.507 148.612 L 239.944 142.817 219.222 162.890 C 207.825 173.930, 189.275 191.951, 178 202.936 L 157.500 222.908 151.011 222.954 L 144.521 223 161.525 205.750 C 170.876 196.262, 180.755 186.137, 183.478 183.248 L 188.428 177.997 185.187 171.424 C 183.404 167.809, 181.598 164.997, 181.174 165.176 C 180.750 165.354, 168.083 178.325, 153.026 194 C 126.744 221.360, 125.486 222.512, 121.574 222.811 L 117.500 223.122 122 218.369 C 124.475 215.755, 138.300 201.537, 152.722 186.774 L 178.945 159.931 176.258 154.454 C 174.781 151.441, 173.254 149.094, 172.865 149.238 C 172.476 149.382, 155.292 166.037, 134.678 186.250 L 97.197 223 73.599 223 L 50 223 50 303 L 50 383 274.500 383 L 499 383 499 303 L 499 223 472.652 223 L 446.304 223 417.289 172.796 C 401.330 145.183, 387.865 122.455, 387.366 122.289 C 386.866 122.122, 362.617 144.707, 333.479 172.478 M 160 303 L 160 350 171 350 L 182 350 182 331.961 L 182 313.922 190.666 314.211 L 199.332 314.500 207.309 332.250 L 215.286 350 226.643 350 C 232.889 350, 238 349.839, 238 349.643 C 238 349.447, 233.725 340.418, 228.500 329.578 C 223.275 318.739, 219 309.449, 219 308.935 C 219 308.421, 219.612 308, 220.359 308 C 222.628 308, 230.952 300.015, 233.127 295.751 C 239.519 283.222, 234.321 266.744, 222.011 260.505 C 214.933 256.919, 206.952 256.016, 182.250 256.008 L 160 256 160 303 M 240 264.500 L 240 273 255 273 L 270 273 270 311.500 L 270 350 280.500 350 L 291 350 291 311.500 L 291 273 306 273 L 321 273 321 264.500 L 321 256 280.500 256 L 240 256 240 264.500 M 329 303 L 329 350 362 350 L 395 350 395 342 L 395 334 372.500 334 L 350 334 350 322.500 L 350 311 369 311 L 388 311 388 303 L 388 295 369 295 L 350 295 350 284 L 350 273 372 273 L 394 273 394 264.500 L 394 256 361.500 256 L 329 256 329 303 M 182 285.504 L 182 298.163 194.431 297.832 C 205.202 297.544, 207.237 297.219, 209.680 295.393 C 215.513 291.032, 216.402 281.907, 211.544 276.254 C 209.209 273.536, 209.002 273.496, 195.589 273.173 L 182 272.845 182 285.504 M 50.021 422.250 L 50.041 440.500 105.271 471.443 C 135.647 488.461, 172.200 508.965, 186.500 517.006 C 200.800 525.048, 226.436 539.464, 243.468 549.041 C 260.501 558.619, 275.356 566.465, 276.480 566.478 C 277.605 566.490, 328.132 538.167, 388.762 503.539 L 499 440.577 499 422.289 L 499 404 274.500 404 L 50 404 50.021 422.250" stroke="none" fill="#ffffff" fill-rule="evenodd"/><path d="M 140.290 78.884 L 4.079 155.500 4.060 312 L 4.040 468.500 139.674 545.766 L 275.307 623.032 410.613 545.266 L 545.918 467.500 545.709 311.608 L 545.500 155.716 414.500 80.803 C 342.450 39.602, 281.925 5.076, 280 4.079 L 276.500 2.268 140.290 78.884 M 151.794 99.841 L 28.088 169.500 28.053 312 L 28.019 454.500 150.759 524.446 C 218.267 562.916, 274.217 594.416, 275.092 594.446 C 275.968 594.475, 331.872 562.775, 399.323 524 L 521.961 453.500 521.730 311.537 L 521.500 169.573 399.500 99.817 C 332.400 61.451, 277.050 30.088, 276.500 30.121 C 275.950 30.155, 219.832 61.529, 151.794 99.841 M 338.371 168.738 C 311.938 193.907, 288.011 216.637, 285.199 219.250 L 280.086 224 272.793 223.989 L 265.500 223.979 277.500 212.203 C 284.100 205.727, 298.244 191.975, 308.930 181.644 L 328.360 162.861 325.110 156.269 L 321.859 149.677 284.649 186.838 L 247.438 224 242.469 223.949 L 237.500 223.898 277.896 184.116 L 318.293 144.334 316.498 139.634 C 315.511 137.049, 314.401 134.748, 314.032 134.520 C 313.430 134.148, 299.927 146.841, 237.820 206.159 L 219.140 224 211.320 223.947 L 203.500 223.895 229.161 198.697 L 254.822 173.500 251.371 166.698 L 247.920 159.896 223.244 185.198 C 209.672 199.114, 195.593 213.537, 191.956 217.250 C 185.626 223.713, 185.142 224, 180.582 224 L 175.819 224 209.659 189.432 C 228.272 170.420, 243.639 154.479, 243.808 154.008 C 243.977 153.538, 243.077 151.115, 241.808 148.626 L 239.500 144.099 200 182.602 C 178.275 203.778, 159.532 221.779, 158.349 222.603 C 156.850 223.646, 154.272 224.010, 149.849 223.800 L 143.500 223.500 165.250 201.161 C 177.213 188.874, 187 178.468, 187 178.035 C 187 176.304, 181.908 165.869, 181.211 166.174 C 180.801 166.353, 168.365 179.100, 153.576 194.500 C 138.787 209.900, 126.076 222.863, 125.330 223.307 C 124.585 223.751, 122.102 223.976, 119.815 223.807 L 115.655 223.500 142.578 195.939 C 157.385 180.780, 171.440 166.336, 173.810 163.840 L 178.120 159.302 175.854 154.636 C 174.607 152.070, 173.271 150.090, 172.884 150.235 C 172.497 150.381, 155.297 167.037, 134.662 187.250 L 97.144 224 73.572 224 L 50 224 50 303.500 L 50 383 274 383 L 498 383 498 303.517 L 498 224.033 471.924 223.767 L 445.849 223.500 416.956 173.510 C 401.064 146.016, 387.695 123.398, 387.246 123.249 C 386.796 123.099, 364.803 143.569, 338.371 168.738 M 160 303.429 L 160 351 171 351 L 182 351 182 332.500 L 182 314 190.250 314.022 L 198.500 314.043 206.631 332.272 L 214.762 350.500 226.881 350.781 C 233.547 350.935, 239 350.852, 239 350.596 C 239 350.340, 234.652 341.013, 229.339 329.868 C 220.402 311.124, 219.816 309.527, 221.523 308.553 C 225.692 306.174, 232.030 299.570, 233.950 295.603 C 235.474 292.456, 236 289.387, 236 283.651 C 236 271.439, 231.088 263.746, 220 258.592 C 215.837 256.657, 213.422 256.476, 187.750 256.179 L 160 255.859 160 303.429 M 239 264.500 L 239 273 254 273 L 269 273 269 312 L 269 351 279.988 351 L 290.977 351 291.238 312.250 L 291.500 273.500 306.250 273.223 L 321 272.947 321 264.473 L 321 256 280 256 L 239 256 239 264.500 M 328 303.500 L 328 351 362 351 L 396 351 396 342.500 L 396 334 373 334 L 350 334 350 322.500 L 350 311 369.540 311 L 389.081 311 388.790 302.750 L 388.500 294.500 369.250 294.228 L 350 293.957 350 283.478 L 350 273 372.500 273 L 395 273 395 264.500 L 395 256 361.500 256 L 328 256 328 303.500 M 182 285.079 L 182 297.159 194.980 296.829 C 207.498 296.512, 208.055 296.405, 210.618 293.839 C 212.575 291.881, 213.383 289.900, 213.680 286.339 C 214.541 276.036, 209.896 273.004, 193.250 273.002 L 182 273 182 285.079 M 195.994 422.870 C 187.153 425.786, 183 430.755, 183 438.418 C 183 447.722, 186.846 451.250, 201.469 455.358 C 212.727 458.521, 215.445 461.555, 211 466 C 207.312 469.688, 194.135 468.147, 188.907 463.416 C 187.397 462.049, 186.940 462.288, 184.018 465.978 C 180.192 470.809, 180.593 471.669, 188.281 475.129 C 192.569 477.059, 195.194 477.480, 203 477.489 C 211.545 477.499, 212.964 477.227, 217.120 474.784 C 222.693 471.508, 225 467.175, 225 459.981 C 225 455.277, 224.632 454.402, 221.250 451.068 C 217.646 447.516, 215.769 446.725, 202.295 443.083 C 195.213 441.169, 193.231 437.769, 197 434 C 199.909 431.091, 207.305 431.312, 213.581 434.496 C 216.286 435.869, 218.551 436.994, 218.614 436.996 C 218.677 436.998, 219.999 435.166, 221.552 432.925 C 224.727 428.344, 224.733 428.355, 217.167 424.844 C 212.426 422.644, 200.149 421.499, 195.994 422.870 M 244.147 425.750 C 240.995 433.656, 226 475.276, 226 476.116 C 226 476.682, 228.606 476.970, 232.171 476.798 L 238.341 476.500 240.254 470.750 L 242.167 465 252.500 465 L 262.833 465 264.746 470.750 L 266.659 476.500 273.429 476.798 C 277.475 476.976, 280.058 476.708, 279.849 476.132 C 279.657 475.602, 275.225 463.433, 270 449.090 L 260.500 423.012 252.871 423.006 C 245.479 423, 245.209 423.085, 244.147 425.750 M 284 450 L 284 477 290 477 L 296 477 296 466 L 296 455 307 455 L 318 455 318 450.500 L 318 446 307 446 L 296 446 296 439.500 L 296 433 308.500 433 L 321 433 321 428 L 321 423 302.500 423 L 284 423 284 450 M 364.270 428.715 C 361.596 429.217, 358 433.510, 358 436.201 C 358 443.832, 367.232 447.859, 372.545 442.545 C 378.379 436.712, 372.653 427.143, 364.270 428.715 M 362.455 432.455 C 359.459 435.450, 359.327 438.327, 362.059 441.059 C 363.465 442.465, 365.120 443.020, 367.278 442.809 C 373.371 442.213, 374.984 433.680, 369.477 431.171 C 365.903 429.543, 365.246 429.663, 362.455 432.455 M 364.116 437.250 C 364.180 439.587, 364.438 440.712, 364.689 439.750 C 365.250 437.604, 366.586 437.479, 367.362 439.500 C 368.420 442.257, 369.573 441.042, 369.735 437 C 369.886 433.202, 369.745 433, 366.947 433 C 364.128 433, 364.005 433.185, 364.116 437.250 M 249.201 444.836 C 247.441 450.208, 246 454.917, 246 455.301 C 246 455.686, 248.925 456, 252.500 456 C 257.198 456, 259 455.636, 259 454.688 C 259 453.410, 253.329 435.996, 252.712 435.379 C 252.542 435.208, 250.962 439.464, 249.201 444.836 M 336.310 439.063 C 327.735 440.725, 323.149 446.262, 322.265 456.019 C 321.020 469.743, 328.842 478.024, 343 477.972 C 347.801 477.955, 354.643 475.352, 356.827 472.713 C 357.969 471.333, 357.697 470.701, 354.872 468.177 L 351.589 465.244 348.914 467.222 C 344.922 470.173, 339.139 469.863, 336.284 466.544 C 335.028 465.084, 334 463.464, 334 462.944 C 334 462.402, 339.318 462, 346.481 462 C 358.640 462, 358.977 461.941, 359.534 459.719 C 360.339 456.513, 358.311 448.246, 355.884 444.837 C 352.233 439.710, 344.593 437.456, 336.310 439.063 M 336.073 449.635 C 332.425 454.273, 333.199 455.126, 340.750 454.796 C 347.288 454.509, 347.492 454.421, 347.231 452 C 346.654 446.638, 339.605 445.144, 336.073 449.635 M 271.500 488.874 C 259.686 491.991, 254 500.959, 254 516.477 C 254 525.617, 255.105 529.922, 258.690 534.751 C 262.354 539.686, 266.420 541.388, 274.500 541.367 C 286.934 541.334, 293.639 536.162, 294.650 525.820 C 295.306 519.119, 292.202 512.650, 286.991 509.855 C 282.234 507.304, 273.534 507.377, 269.226 510.004 C 267.425 511.102, 265.785 512, 265.582 512 C 265.379 512, 265.642 510.087, 266.167 507.750 C 268.012 499.536, 274.974 495.613, 283.480 497.994 C 285.997 498.699, 288.255 499.078, 288.497 498.837 C 288.738 498.595, 289.635 496.725, 290.489 494.682 C 292.037 490.976, 292.034 490.963, 289.303 489.925 C 285.594 488.515, 275.189 487.901, 271.500 488.874 M 271 517.294 C 266.990 519.322, 265.631 523.181, 267.419 527.460 C 270.555 534.966, 280.639 534.269, 282.612 526.411 C 283.455 523.053, 281.378 518.493, 278.385 517.130 C 275.249 515.701, 274.099 515.726, 271 517.294" stroke="none" fill="#043c44" fill-rule="evenodd"/><path d="M 371.966 135.750 L 366.500 141.500 372.250 136.034 C 377.592 130.956, 378.458 130, 377.716 130 C 377.560 130, 374.972 132.588, 371.966 135.750 M 297.966 147.750 L 292.500 153.500 298.250 148.034 C 303.592 142.956, 304.458 142, 303.716 142 C 303.560 142, 300.972 144.588, 297.966 147.750 M 168.946 152.750 L 165.500 156.500 169.250 153.054 C 172.740 149.846, 173.460 149, 172.696 149 C 172.529 149, 170.842 150.688, 168.946 152.750 M 293.493 177.250 L 265.500 205.500 293.962 177.500 C 309.616 162.100, 322.628 149.387, 322.878 149.250 C 323.129 149.113, 322.918 149, 322.410 149 C 321.902 149, 308.890 161.713, 293.493 177.250 M 298.487 164.250 L 284.500 178.500 298.750 164.513 C 306.587 156.821, 313 150.408, 313 150.263 C 313 149.547, 311.480 151.012, 298.487 164.250 M 350.462 156.250 L 345.500 161.500 350.750 156.538 C 353.637 153.808, 356 151.446, 356 151.288 C 356 150.541, 355.074 151.372, 350.462 156.250 M 241.966 164.750 L 236.500 170.500 242.250 165.034 C 247.592 159.956, 248.458 159, 247.716 159 C 247.560 159, 244.972 161.588, 241.966 164.750 M 208.980 172.750 L 199.500 182.500 209.250 173.020 C 214.613 167.806, 219 163.418, 219 163.270 C 219 162.545, 217.785 163.694, 208.980 172.750 M 324 167.500 C 321.571 169.975, 319.809 172, 320.084 172 C 320.359 172, 322.571 169.975, 325 167.500 C 327.429 165.025, 329.191 163, 328.916 163 C 328.641 163, 326.429 165.025, 324 167.500 M 275.462 169.250 L 270.500 174.500 275.750 169.538 C 278.637 166.808, 281 164.446, 281 164.288 C 281 163.541, 280.074 164.372, 275.462 169.250 M 158.483 180.250 L 147.500 191.500 158.750 180.517 C 164.938 174.476, 170 169.414, 170 169.267 C 170 168.546, 168.684 169.801, 158.483 180.250 M 520.500 311.500 C 520.500 389.770, 520.837 453.600, 521.250 453.345 C 521.663 453.091, 522 389.260, 522 311.500 C 522 233.740, 521.663 169.909, 521.250 169.655 C 520.837 169.400, 520.500 233.230, 520.500 311.500 M 329.462 176.250 L 324.500 181.500 329.750 176.538 C 332.637 173.808, 335 171.446, 335 171.288 C 335 170.541, 334.074 171.372, 329.462 176.250 M 247 181.500 C 242.903 185.625, 239.775 189, 240.050 189 C 240.325 189, 243.903 185.625, 248 181.500 C 252.097 177.375, 255.225 174, 254.950 174 C 254.675 174, 251.097 177.375, 247 181.500 M 159.469 187.250 L 153.500 193.500 159.750 187.531 C 163.188 184.249, 166 181.436, 166 181.281 C 166 180.542, 165.013 181.444, 159.469 187.250 M 124.487 196.250 L 110.500 210.500 124.750 196.513 C 137.988 183.520, 139.453 182, 138.737 182 C 138.592 182, 132.179 188.412, 124.487 196.250 M 195.490 204.250 L 176.500 223.500 195.750 204.510 C 213.635 186.866, 215.452 185, 214.740 185 C 214.597 185, 205.935 193.662, 195.490 204.250 M 252.966 190.750 L 247.500 196.500 253.250 191.034 C 258.592 185.956, 259.458 185, 258.716 185 C 258.560 185, 255.972 187.588, 252.966 190.750 M 297 193.500 C 292.903 197.625, 289.775 201, 290.050 201 C 290.325 201, 293.903 197.625, 298 193.500 C 302.097 189.375, 305.225 186, 304.950 186 C 304.675 186, 301.097 189.375, 297 193.500 M 169.978 196.750 L 161.500 205.500 170.250 197.022 C 178.377 189.148, 179.456 188, 178.728 188 C 178.578 188, 174.641 191.938, 169.978 196.750 M 207.481 200.250 L 197.500 210.500 207.750 200.519 C 213.387 195.029, 218 190.417, 218 190.269 C 218 189.545, 216.752 190.730, 207.481 200.250 M 307.966 196.750 L 302.500 202.500 308.250 197.034 C 313.592 191.956, 314.458 191, 313.716 191 C 313.560 191, 310.972 193.588, 307.966 196.750 M 169.481 211.250 L 159.500 221.500 169.750 211.519 C 175.387 206.029, 180 201.417, 180 201.269 C 180 200.545, 178.752 201.730, 169.481 211.250 M 135.469 212.250 L 129.500 218.500 135.750 212.531 C 139.188 209.249, 142 206.436, 142 206.281 C 142 205.542, 141.013 206.444, 135.469 212.250 M 230.966 211.750 L 225.500 217.500 231.250 212.034 C 236.592 206.956, 237.458 206, 236.716 206 C 236.560 206, 233.972 208.588, 230.966 211.750 M 246.978 214.750 L 238.500 223.500 247.250 215.022 C 255.377 207.148, 256.456 206, 255.728 206 C 255.578 206, 251.641 209.938, 246.978 214.750 M 210.469 217.250 L 204.500 223.500 210.750 217.531 C 216.556 211.987, 217.458 211, 216.719 211 C 216.564 211, 213.751 213.813, 210.469 217.250 M 286.462 217.250 L 281.500 222.500 286.750 217.538 C 289.637 214.808, 292 212.446, 292 212.288 C 292 211.541, 291.074 212.372, 286.462 217.250 M 121.462 218.250 L 116.500 223.500 121.750 218.538 C 126.628 213.926, 127.459 213, 126.712 213 C 126.554 213, 124.192 215.363, 121.462 218.250 M 269.946 219.750 L 266.500 223.500 270.250 220.054 C 272.313 218.158, 274 216.471, 274 216.304 C 274 215.540, 273.154 216.260, 269.946 219.750 M 498.477 303 C 498.477 347.275, 498.600 365.388, 498.750 343.250 C 498.900 321.113, 498.900 284.888, 498.750 262.750 C 498.600 240.613, 498.477 258.725, 498.477 303 M 328.485 303 L 328.500 350.500 361.500 350.520 L 394.500 350.540 361.760 350.257 L 329.020 349.973 328.745 302.737 L 328.470 255.500 328.485 303 M 214.232 285 C 214.232 286.925, 214.438 287.712, 214.689 286.750 C 214.941 285.788, 214.941 284.212, 214.689 283.250 C 214.438 282.288, 214.232 283.075, 214.232 285 M 187.789 297.741 C 191.248 297.937, 196.648 297.936, 199.789 297.738 C 202.930 297.540, 200.100 297.380, 193.500 297.382 C 186.900 297.384, 184.330 297.546, 187.789 297.741 M 228.437 302.250 L 225.500 305.500 228.750 302.563 C 231.779 299.825, 232.460 299, 231.687 299 C 231.515 299, 230.052 300.462, 228.437 302.250 M 165.250 350.739 C 168.412 350.937, 173.588 350.937, 176.750 350.739 C 179.912 350.541, 177.325 350.378, 171 350.378 C 164.675 350.378, 162.088 350.541, 165.250 350.739 M 220.789 350.741 C 224.248 350.937, 229.648 350.936, 232.789 350.738 C 235.930 350.540, 233.100 350.380, 226.500 350.382 C 219.900 350.384, 217.330 350.546, 220.789 350.741 M 275.287 350.740 C 278.469 350.939, 283.419 350.937, 286.287 350.736 C 289.154 350.535, 286.550 350.372, 280.500 350.374 C 274.450 350.376, 272.104 350.541, 275.287 350.740 M 273.727 404.750 L 497.955 405.004 498.251 423.252 L 498.548 441.500 498.774 422.750 L 499 404 274.250 404.248 L 49.500 404.496 273.727 404.750" stroke="none" fill="#d9ecec" fill-rule="evenodd"/></svg>