<svg xmlns="http://www.w3.org/2000/svg" width="551" height="625" viewBox="0 0 551 625" version="1.1"><path d="M 376.462 132.250 L 371.500 137.500 376.750 132.538 C 379.637 129.808, 382 127.446, 382 127.288 C 382 126.541, 381.074 127.372, 376.462 132.250 M 301.966 144.750 L 296.500 150.500 302.250 145.034 C 307.592 139.956, 308.458 139, 307.716 139 C 307.560 139, 304.972 141.588, 301.966 144.750 M 305.985 156.750 L 293.500 169.500 306.250 157.015 C 318.093 145.418, 319.453 144, 318.735 144 C 318.589 144, 312.852 149.738, 305.985 156.750 M 354.966 152.750 L 349.500 158.500 355.250 153.034 C 360.592 147.956, 361.458 147, 360.716 147 C 360.560 147, 357.972 149.588, 354.966 152.750 M 216.481 166.250 L 206.500 176.500 216.750 166.519 C 222.387 161.029, 227 156.417, 227 156.269 C 227 155.545, 225.752 156.730, 216.481 166.250 M 238.978 168.750 L 230.500 177.500 239.470 169 C 244.403 164.325, 248.641 160.387, 248.887 160.250 C 249.132 160.113, 248.911 160, 248.395 160 C 247.878 160, 243.641 163.938, 238.978 168.750 M 279.966 165.750 L 274.500 171.500 280.250 166.034 C 285.592 160.956, 286.458 160, 285.716 160 C 285.560 160, 282.972 162.588, 279.966 165.750 M 177.453 169.250 L 173.500 173.500 177.563 169.730 C 179.798 167.656, 182.007 166.306, 182.473 166.730 C 182.939 167.153, 182.997 166.938, 182.601 166.250 C 181.648 164.593, 181.945 164.420, 177.453 169.250 M 333.462 173.250 L 328.500 178.500 333.750 173.538 C 336.637 170.808, 339 168.446, 339 168.288 C 339 167.541, 338.074 168.372, 333.462 173.250 M 28.462 170.250 C 28.200 170.938, 28.102 235.175, 28.243 313 L 28.500 454.500 29 311.750 C 29.275 233.237, 29.373 169, 29.219 169 C 29.064 169, 28.723 169.563, 28.462 170.250 M 133.986 187.750 L 120.500 201.500 134.250 188.014 C 147.023 175.486, 148.453 174, 147.736 174 C 147.591 174, 141.403 180.188, 133.986 187.750 M 250.946 177.750 L 247.500 181.500 251.250 178.054 C 254.740 174.846, 255.460 174, 254.696 174 C 254.529 174, 252.842 175.688, 250.946 177.750 M 151.483 187.250 L 140.500 198.500 151.750 187.517 C 157.938 181.476, 163 176.414, 163 176.267 C 163 175.546, 161.684 176.801, 151.483 187.250 M 257.966 186.750 L 252.500 192.500 258.250 187.034 C 263.592 181.956, 264.458 181, 263.716 181 C 263.560 181, 260.972 183.588, 257.966 186.750 M 302 188.500 C 297.903 192.625, 294.775 196, 295.050 196 C 295.325 196, 298.903 192.625, 303 188.500 C 307.097 184.375, 310.225 181, 309.950 181 C 309.675 181, 306.097 184.375, 302 188.500 M 155.971 191.750 L 149.500 198.500 156.250 192.029 C 159.963 188.470, 163 185.432, 163 185.279 C 163 184.543, 161.982 185.480, 155.971 191.750 M 312.462 193.250 L 307.500 198.500 312.750 193.538 C 315.637 190.808, 318 188.446, 318 188.288 C 318 187.541, 317.074 188.372, 312.462 193.250 M 164.978 201.750 L 156.500 210.500 165.250 202.022 C 173.377 194.148, 174.456 193, 173.728 193 C 173.578 193, 169.641 196.938, 164.978 201.750 M 176.980 204.750 L 167.500 214.500 177.250 205.020 C 182.613 199.806, 187 195.418, 187 195.270 C 187 194.545, 185.785 195.694, 176.980 204.750 M 252.236 209.263 C 244.956 216.558, 239 222.858, 239 223.263 C 239 223.669, 241.137 223.921, 243.750 223.825 L 248.500 223.651 244.080 223.259 L 239.659 222.868 253.066 209.434 C 260.439 202.045, 266.247 196, 265.972 196 C 265.697 196, 259.516 201.969, 252.236 209.263 M 201.481 207.250 L 191.500 217.500 201.750 207.519 C 207.387 202.029, 212 197.417, 212 197.269 C 212 196.545, 210.752 197.730, 201.481 207.250 M 188.734 210.765 C 182.280 217.236, 177 222.861, 177 223.265 C 177 223.669, 179.137 223.921, 181.750 223.825 L 186.500 223.651 182.081 223.260 L 177.662 222.869 189.566 210.934 C 196.112 204.370, 201.244 199, 200.969 199 C 200.694 199, 195.188 204.294, 188.734 210.765 M 214.731 212.768 C 209.379 218.140, 205 222.865, 205 223.268 C 205 223.671, 208.488 223.911, 212.750 223.801 L 220.500 223.603 213.066 223.254 L 205.632 222.905 215.547 212.952 C 221.001 207.479, 225.237 203, 224.962 203 C 224.687 203, 220.083 207.396, 214.731 212.768 M 235.462 208.250 L 230.500 213.500 235.750 208.538 C 240.628 203.926, 241.459 203, 240.712 203 C 240.554 203, 238.192 205.363, 235.462 208.250 M 290.966 213.750 L 285.500 219.500 291.250 214.034 C 294.413 211.028, 297 208.440, 297 208.284 C 297 207.542, 296.044 208.408, 290.966 213.750 M 132 216.500 C 126.263 222.288, 125.131 223, 121.656 223 C 118.085 223, 117.871 222.852, 119.128 221.250 C 120.371 219.664, 120.336 219.629, 118.750 220.872 C 115.946 223.071, 116.696 224, 121.277 224 C 125.244 224, 126.057 223.493, 132.500 217 C 136.320 213.150, 139.220 210, 138.944 210 C 138.668 210, 135.543 212.925, 132 216.500 M 272.719 216.779 C 269.573 219.957, 267 222.882, 267 223.279 C 267 223.676, 270.262 223.912, 274.250 223.804 L 281.500 223.608 274.580 223.255 L 267.661 222.901 273.549 216.950 C 276.788 213.678, 279.212 211, 278.937 211 C 278.662 211, 275.864 213.601, 272.719 216.779 M 50.244 303.250 L 50.488 383.500 50.750 303.768 L 51.012 224.036 74.756 223.749 L 98.500 223.462 74.250 223.231 L 50 223 50.244 303.250 M 147.250 223.728 C 149.313 223.944, 152.688 223.944, 154.750 223.728 C 156.813 223.513, 155.125 223.336, 151 223.336 C 146.875 223.336, 145.188 223.513, 147.250 223.728 M 472.244 223.749 L 497.988 224.034 498.250 303.767 L 498.512 383.500 498.756 303.250 L 499 223 472.750 223.232 L 446.500 223.465 472.244 223.749 M 450 302.966 L 450 349.932 439.250 350.254 L 428.500 350.575 439.750 350.788 L 451 351 451 303.500 C 451 277.375, 450.775 256, 450.500 256 C 450.225 256, 450 277.135, 450 302.966 M 130.250 271.716 C 131.762 271.945, 134.238 271.945, 135.750 271.716 C 137.262 271.487, 136.025 271.300, 133 271.300 C 129.975 271.300, 128.738 271.487, 130.250 271.716 M 301.264 271.718 C 302.784 271.947, 305.034 271.941, 306.264 271.704 C 307.494 271.467, 306.250 271.279, 303.500 271.286 C 300.750 271.294, 299.744 271.488, 301.264 271.718 M 267.310 283.500 C 267.315 286.800, 267.502 288.029, 267.725 286.232 C 267.947 284.435, 267.943 281.735, 267.715 280.232 C 267.486 278.729, 267.304 280.200, 267.310 283.500 M 96.286 283.500 C 96.294 286.250, 96.488 287.256, 96.718 285.736 C 96.947 284.216, 96.941 281.966, 96.704 280.736 C 96.467 279.506, 96.279 280.750, 96.286 283.500 M 271 298.313 C 271 298.485, 272.462 299.948, 274.250 301.563 L 277.500 304.500 274.563 301.250 C 271.825 298.221, 271 297.540, 271 298.313 M 229 311.969 C 229 312.525, 223.774 313.073, 216.750 313.253 L 204.500 313.568 217.250 313.784 C 228.013 313.966, 230 313.766, 230 312.500 C 230 311.675, 229.775 311, 229.500 311 C 229.225 311, 229 311.436, 229 311.969 M 130.762 335.707 C 132.006 335.946, 133.806 335.937, 134.762 335.687 C 135.718 335.437, 134.700 335.241, 132.500 335.252 C 130.300 335.263, 129.518 335.468, 130.762 335.707 M 300.750 335.706 C 301.988 335.944, 304.012 335.944, 305.250 335.706 C 306.488 335.467, 305.475 335.272, 303 335.272 C 300.525 335.272, 299.512 335.467, 300.750 335.706 M 170 350.250 C 170 350.663, 174.923 351, 180.941 351 C 186.959 351, 192.091 350.663, 192.345 350.250 C 192.600 349.837, 187.677 349.500, 181.405 349.500 C 175.132 349.500, 170 349.837, 170 350.250 M 247.789 350.741 C 251.248 350.937, 256.648 350.936, 259.789 350.738 C 262.930 350.540, 260.100 350.380, 253.500 350.382 C 246.900 350.384, 244.330 350.546, 247.789 350.741 M 354.287 350.740 C 357.469 350.939, 362.419 350.937, 365.287 350.736 C 368.154 350.535, 365.550 350.372, 359.500 350.374 C 353.450 350.376, 351.104 350.541, 354.287 350.740 M 394.784 350.738 C 397.689 350.941, 402.189 350.939, 404.784 350.734 C 407.378 350.528, 405 350.363, 399.500 350.365 C 394 350.368, 391.878 350.536, 394.784 350.738 M 51.227 422.714 L 51.500 440.428 164.224 503.729 L 276.948 567.030 387.474 503.875 L 498 440.720 498 422.860 L 498 405 274.477 405 L 50.954 405 51.227 422.714 M 196.123 422.943 C 192.123 423.957, 188.405 426.577, 185.562 430.385 C 182.409 434.608, 182.648 443.926, 186 447.517 C 189.338 451.093, 194.420 453.595, 201.811 455.302 C 209.564 457.093, 213 459.304, 213 462.500 C 213 466.485, 209.112 468.304, 201.615 467.826 C 196.891 467.526, 194.216 466.747, 191.318 464.829 L 187.403 462.238 184.030 466.257 C 180.761 470.150, 180.716 470.321, 182.578 471.750 C 188.014 475.922, 193.420 477.435, 203 477.468 C 211.315 477.496, 213.055 477.188, 216.949 475 C 222.285 472.001, 225.283 467.260, 225.398 461.639 C 225.584 452.462, 220.717 447.680, 208 444.547 C 199.431 442.436, 197.330 441.486, 196.084 439.156 C 195.273 437.642, 195.496 436.639, 197.095 434.607 C 199.897 431.044, 206.699 431.001, 213.581 434.504 L 218.500 437.009 221.223 433.754 C 222.721 431.964, 223.958 429.913, 223.973 429.195 C 223.988 428.477, 221.455 426.724, 218.344 425.300 C 212.207 422.490, 202.126 421.421, 196.123 422.943 M 236.012 448.750 C 230.887 462.913, 226.490 475.063, 226.240 475.750 C 225.907 476.667, 227.486 477, 232.163 477 L 238.540 477 240.520 471.250 L 242.500 465.500 252.917 465.500 L 263.333 465.500 265.250 471.250 L 267.167 477 273.583 477 C 277.113 477, 280 476.710, 280 476.357 C 280 476.003, 276.114 465.090, 271.364 452.107 C 266.614 439.123, 262.295 427.262, 261.766 425.750 C 260.829 423.070, 260.608 423, 253.068 423 L 245.331 423 236.012 448.750 M 284 450 L 284 477 289.966 477 L 295.932 477 296.216 466.250 L 296.500 455.500 307.250 455.216 L 318 454.932 318 450.500 L 318 446.068 307.250 445.784 L 296.500 445.500 296.202 439.250 L 295.905 433 308.952 433 L 322 433 322 428 L 322 423 303 423 L 284 423 284 450 M 363.400 429.425 C 359.922 430.942, 359 432.637, 359 437.509 C 359 439.932, 359.726 441.426, 361.635 442.927 C 367.330 447.408, 375 443.965, 375 436.927 C 375 433.172, 372.412 429, 370.082 429 C 369.577 429, 368.564 428.791, 367.832 428.536 C 367.099 428.282, 365.105 428.681, 363.400 429.425 M 362.986 431.810 C 358.589 435.371, 361.326 443, 367 443 C 372.674 443, 375.411 435.371, 371.014 431.810 C 369.785 430.815, 367.978 430, 367 430 C 366.022 430, 364.215 430.815, 362.986 431.810 M 364 437 C 364 440.784, 365.964 442.960, 366.032 439.250 C 366.062 437.583, 366.127 437.583, 367.392 439.250 C 369.232 441.673, 371.389 441.596, 370.082 439.153 C 369.416 437.909, 369.441 436.959, 370.160 436.240 C 371.798 434.602, 370.207 433, 366.941 433 C 364.177 433, 364 433.240, 364 437 M 249.571 444.750 C 248.008 449.563, 246.517 454.063, 246.257 454.750 C 245.907 455.678, 247.644 456, 253 456 C 258.356 456, 260.093 455.678, 259.743 454.750 C 259.483 454.063, 257.992 449.563, 256.429 444.750 C 254.867 439.938, 253.323 436, 253 436 C 252.677 436, 251.133 439.938, 249.571 444.750 M 336.685 438.984 C 322.688 441.635, 317.158 462.092, 327.614 472.547 C 333.948 478.881, 347.186 479.789, 355.265 474.444 L 359.396 471.710 355.521 468.456 L 351.645 465.202 348.942 467.201 C 343.857 470.961, 336.063 469.174, 334.693 463.935 C 334.212 462.095, 334.824 462, 347.094 462 L 360 462 360 457.468 C 360 452.587, 357.964 446.722, 355.214 443.684 C 351.495 439.574, 343.831 437.630, 336.685 438.984 M 337.167 448.750 C 336.038 449.712, 334.975 451.400, 334.807 452.500 C 334.529 454.309, 335.144 454.528, 341.250 454.796 C 347.480 455.069, 348 454.934, 348 453.046 C 348 450.275, 344.538 447, 341.611 447 C 340.297 447, 338.297 447.788, 337.167 448.750 M 270.340 489.435 C 263.924 491.441, 260.380 494.526, 257.312 500.774 C 254.797 505.895, 254.500 507.559, 254.500 516.527 C 254.500 525.321, 254.815 527.165, 257.059 531.527 C 265.863 548.639, 295.004 543.320, 294.998 524.602 C 294.995 514.258, 288.989 508, 279.064 508 C 275.440 508, 272.051 508.699, 269.588 509.955 L 265.753 511.910 266.331 508.349 C 267.867 498.885, 275.064 495.398, 286.536 498.560 C 288.141 499.002, 288.938 498.353, 290.302 495.492 C 291.254 493.496, 291.797 491.480, 291.508 491.012 C 290.823 489.905, 281.806 487.981, 277.701 488.067 C 275.940 488.104, 272.628 488.719, 270.340 489.435 M 271.315 516.969 C 267.292 518.660, 265.567 525.551, 268.282 529.087 C 273.380 535.727, 283 532.656, 283 524.388 C 283 518.511, 276.885 514.629, 271.315 516.969" stroke="none" fill="#8acbce" fill-rule="evenodd"/><path d="M 152.500 100.502 L 29.500 169.856 29.500 312.098 L 29.500 454.340 152.500 524.540 C 261.333 586.655, 275.730 594.602, 277.500 593.538 C 278.600 592.876, 334.063 560.940, 400.750 522.570 L 522 452.804 522 311.616 L 522 170.428 400.002 100.714 C 332.904 62.371, 277.441 31.033, 276.752 31.074 C 276.064 31.115, 220.150 62.357, 152.500 100.502 M 333.648 172.541 L 280.795 223 274.148 222.954 L 267.500 222.908 275.604 215.204 C 306.220 186.097, 328.998 163.432, 328.987 162.084 C 328.981 161.213, 327.447 157.817, 325.580 154.539 L 322.185 148.578 284.779 185.789 C 248.285 222.093, 247.278 223, 243.439 223 L 239.505 223 279.253 183.917 C 301.114 162.421, 319 144.208, 319 143.444 C 319 141.480, 314.728 132.916, 313.908 133.235 C 313.534 133.381, 292.139 153.637, 266.364 178.250 L 219.500 222.999 212.500 222.977 L 205.500 222.954 230.250 198.885 C 243.863 185.646, 254.978 174.069, 254.951 173.158 C 254.925 172.246, 253.433 168.642, 251.636 165.150 L 248.370 158.799 217.005 190.900 C 186.008 222.623, 185.591 223, 181.575 223 L 177.511 223 211.256 189.245 C 229.815 170.679, 245 154.914, 245 154.211 C 245 153.509, 243.852 150.667, 242.448 147.897 L 239.896 142.861 206.906 175.180 C 188.762 192.956, 170.131 211.011, 165.505 215.301 L 157.093 223.103 151.451 222.801 L 145.808 222.500 167.341 200.408 L 188.874 178.317 185.781 171.658 C 184.079 167.996, 182.346 165, 181.929 165 C 181.512 165, 168.665 178.050, 153.380 194 C 125.970 222.603, 125.534 223, 121.560 223 L 117.531 223 129.512 210.750 C 136.102 204.012, 150.019 189.859, 160.440 179.297 L 179.386 160.095 176.991 154.982 C 175.674 152.170, 174.230 149.642, 173.783 149.366 C 173.335 149.089, 156 165.544, 135.260 185.931 L 97.552 223 73.776 223 L 50 223 50 303 L 50 383 274.500 383 L 499 383 499 303 L 499 223 472.750 222.978 L 446.500 222.955 417.500 172.515 C 401.550 144.773, 388.050 122.077, 387.500 122.079 C 386.950 122.080, 362.716 144.788, 333.648 172.541 M 122.270 255.987 C 106.951 259.252, 97.033 269.812, 97.010 282.884 C 96.981 298.723, 104.859 305.910, 128.903 311.977 C 146.449 316.405, 149 318.040, 149 324.858 C 149 337.575, 124.075 339.529, 108.233 328.054 L 104.256 325.173 98.725 331.897 L 93.193 338.621 97.952 341.868 C 117.045 354.897, 148.138 354.814, 161.838 341.696 C 169.534 334.326, 172.162 321.897, 168.047 312.330 C 163.948 302.803, 157.047 298.649, 136.918 293.590 C 121.785 289.787, 118.638 287.936, 118.185 282.574 C 117.185 270.733, 133.224 267.270, 149.979 275.711 C 154.115 277.795, 157.763 279.625, 158.085 279.778 C 158.849 280.142, 167 268.521, 167 267.069 C 167 265.251, 157.983 260.080, 151 257.893 C 143.659 255.595, 128.752 254.606, 122.270 255.987 M 291.500 256.342 C 283.941 258.316, 278.681 261.419, 274.134 266.586 C 269.445 271.913, 268.014 276.045, 268.006 284.282 C 267.991 298.921, 276.171 305.986, 300.134 312.032 C 312.574 315.170, 318.292 317.714, 319.401 320.602 C 320.670 323.910, 319.906 327.958, 317.465 330.859 C 310.905 338.656, 291.029 336.911, 278.371 327.427 L 275.243 325.083 270.948 330.292 C 268.585 333.156, 266.037 336.231, 265.284 337.125 C 264.076 338.560, 264.549 339.170, 269.317 342.335 C 284.557 352.451, 308.065 354.564, 324.308 347.280 C 340.502 340.017, 346.010 320.191, 335.620 306.569 C 331.879 301.663, 321.258 296.721, 307.667 293.560 C 293.059 290.163, 289.615 288.027, 289.187 282.099 C 288.620 274.257, 295.134 270.256, 306.710 271.337 C 313.100 271.934, 323.930 276.005, 326.108 278.630 C 326.733 279.384, 327.776 280, 328.426 280 C 329.656 280, 338 268.804, 338 267.153 C 338 265.486, 328.196 259.852, 321.748 257.814 C 313.816 255.307, 298.344 254.554, 291.500 256.342 M 204.507 257.220 C 204.258 257.924, 196.617 278.922, 187.527 303.882 C 178.437 328.842, 171 349.430, 171 349.632 C 171 349.834, 175.696 350, 181.435 350 L 191.870 350 195.154 339.979 L 198.439 329.958 217.386 330.229 L 236.333 330.500 239.499 340 L 242.664 349.500 253.332 349.784 C 261.519 350.002, 263.987 349.769, 263.944 348.784 C 263.913 348.078, 256.367 327.025, 247.174 302 L 230.461 256.500 217.711 256.220 C 208.050 256.008, 204.851 256.250, 204.507 257.220 M 349 303 L 349 350 359.500 350 L 370 350 370.036 318.750 L 370.072 287.500 380.286 318.739 L 390.500 349.979 399.524 349.989 L 408.549 350 418.667 319.250 L 428.785 288.500 428.892 319.250 L 429 350 439.500 350 L 450 350 450 303 L 450 256 436.090 256 L 422.181 256 417.166 271.750 C 414.408 280.413, 409.546 295.712, 406.363 305.750 C 403.179 315.788, 400.333 323.999, 400.037 323.997 C 399.742 323.995, 397.103 316.458, 394.174 307.247 C 391.244 298.036, 386.362 282.738, 383.324 273.250 L 377.800 256 363.400 256 L 349 256 349 303 M 216.523 277.107 C 216.235 277.873, 213.333 286.488, 210.073 296.250 L 204.146 314 217.073 314 C 224.183 314, 230 313.648, 230 313.219 C 230 312.061, 218.137 276.803, 217.550 276.216 C 217.273 275.940, 216.811 276.341, 216.523 277.107 M 50.227 422.237 L 50.500 440.474 163 503.698 C 224.875 538.472, 276.082 566.940, 276.794 566.961 C 277.506 566.983, 327.793 538.582, 388.544 503.848 L 499 440.697 499 422.348 L 499 404 274.477 404 L 49.955 404 50.227 422.237" stroke="none" fill="#ffffff" fill-rule="evenodd"/><path d="M 273.500 3.964 C 271.239 5.320, 197.025 47.104, 170 62.237 C 168.075 63.315, 159.075 68.391, 150 73.516 C 126.072 87.029, 39.376 135.807, 33.500 139.062 C 30.750 140.585, 23.100 144.908, 16.500 148.669 L 4.500 155.505 4.258 312.003 L 4.016 468.500 88.258 516.463 C 134.591 542.842, 195.556 577.605, 223.736 593.713 C 251.916 609.821, 275.242 623, 275.571 623 C 275.900 623, 336.882 588.051, 411.085 545.336 L 546 467.673 545.988 311.586 L 545.976 155.500 411.613 78.750 C 337.713 36.537, 277.081 2.037, 276.875 2.083 C 276.669 2.128, 275.150 2.975, 273.500 3.964 M 152.500 99.844 L 28.500 169.670 28.247 311.710 C 28.045 424.595, 28.250 453.954, 29.247 454.745 C 31.224 456.315, 274.812 595, 275.593 595 C 275.978 595, 331.577 563.169, 399.146 524.266 L 522 453.531 521.965 311.516 L 521.929 169.500 399.706 99.750 C 332.483 61.388, 277.262 30.004, 276.991 30.009 C 276.721 30.013, 220.700 61.439, 152.500 99.844 M 334.112 173.126 L 280.736 224 273.868 224 C 270.091 224, 267 223.662, 267 223.248 C 267 222.835, 280.934 209.065, 297.964 192.648 L 328.927 162.799 325.845 156.649 C 324.150 153.267, 322.597 150.318, 322.393 150.095 C 322.190 149.872, 305.232 166.410, 284.709 186.845 C 247.505 223.891, 247.382 224, 243.197 224 C 240.889 224, 239 223.659, 239 223.242 C 239 222.825, 256.993 204.796, 278.984 183.178 L 318.968 143.871 316.433 138.868 L 313.898 133.865 296.817 150.182 C 287.422 159.157, 266.182 179.431, 249.618 195.236 L 219.500 223.972 212.250 223.986 C 208.262 223.994, 205 223.633, 205 223.184 C 205 222.735, 216.234 211.462, 229.966 198.133 L 254.931 173.898 251.751 167.449 C 250.002 163.902, 248.259 161, 247.878 161 C 247.497 161, 233.345 175.175, 216.429 192.500 L 185.673 224 181.336 224 C 178.951 224, 177 223.665, 177 223.255 C 177 222.846, 192.293 207.208, 210.985 188.505 L 244.969 154.500 242.478 149.136 L 239.986 143.772 206.928 176.136 C 188.746 193.936, 170.092 212.008, 165.474 216.297 L 157.079 224.093 150.490 223.797 L 143.901 223.500 165.989 200.798 L 188.077 178.095 184.985 171.970 C 182.426 166.901, 181.645 166.050, 180.458 167.035 C 179.669 167.690, 167.015 180.775, 152.339 196.113 L 125.654 224 121.244 224 C 118.818 224, 116.983 223.571, 117.167 223.046 C 117.350 222.521, 131.150 208.122, 147.833 191.047 L 178.166 160.001 176.435 155.468 C 175.482 152.975, 174.313 150.694, 173.836 150.399 C 173.359 150.104, 156 166.544, 135.260 186.931 L 97.552 224 74.276 224 L 51 224 51 303.500 L 51 383 274.500 383 L 498 383 498 303.500 L 498 224 472.655 224 C 449.752 224, 447.166 223.831, 445.817 222.250 C 444.996 221.287, 432.019 199.125, 416.980 173 C 401.940 146.875, 389.152 124.769, 388.562 123.876 C 387.656 122.506, 379.158 130.193, 334.112 173.126 M 116.104 257.137 C 107.276 259.932, 99.856 267.248, 97.448 275.532 C 94.194 286.726, 97.698 297.944, 106.296 303.860 C 112.231 307.943, 116.922 309.760, 128.831 312.589 C 138.929 314.987, 146.194 317.886, 147.532 320.052 C 148.865 322.209, 148.173 328.152, 146.350 330.199 C 139.837 337.512, 119.830 336.097, 108.607 327.530 L 104.133 324.115 98.470 331.123 C 92.977 337.922, 92.861 338.189, 94.588 340.097 C 97.819 343.667, 106.716 348.024, 115.109 350.147 C 125.988 352.898, 142.544 352.420, 151.147 349.108 C 158.267 346.366, 165.173 340.340, 168.083 334.329 C 171.221 327.847, 171.223 317.158, 168.089 310.683 C 163.833 301.892, 156.810 297.933, 136.500 292.874 C 125.995 290.258, 122.950 289.088, 120.633 286.778 C 118.247 284.399, 117.874 283.382, 118.407 280.710 C 119.495 275.263, 123.008 272.699, 130.087 272.187 C 138.259 271.596, 145.500 273.327, 152.506 277.546 C 155.661 279.446, 158.378 281, 158.544 281 C 158.710 281, 160.956 277.981, 163.536 274.291 C 166.987 269.353, 167.977 267.187, 167.283 266.087 C 165.781 263.705, 155.042 258.241, 148.540 256.550 C 139.883 254.299, 124.172 254.583, 116.104 257.137 M 287.403 257.045 C 280.277 259.305, 273 265.203, 269.726 271.372 C 266.608 277.246, 266.607 289.752, 269.723 295.624 C 274.094 303.860, 281.846 308.271, 299.500 312.568 C 311.432 315.473, 317.399 317.992, 318.377 320.539 C 320.564 326.238, 317.895 331.581, 311.685 333.933 C 304.156 336.786, 288.129 333.774, 280.174 328.011 C 277.888 326.355, 275.642 325, 275.183 325 C 274.154 325, 264 337.407, 264 338.664 C 264 340.335, 274.985 346.831, 281.781 349.179 C 287.587 351.185, 290.402 351.496, 302.500 351.470 C 314.598 351.445, 317.258 351.138, 322.079 349.212 C 334.538 344.237, 340.973 335.058, 340.990 322.239 C 341.002 313.365, 338.499 307.355, 332.967 302.974 C 327.519 298.659, 322.243 296.569, 307.500 292.885 C 297.222 290.317, 293.924 289.062, 291.750 286.895 C 288.206 283.363, 288.248 279.873, 291.883 275.805 C 294.526 272.847, 295.358 272.545, 301.889 272.176 C 310.104 271.712, 316.927 273.527, 324.088 278.082 C 326.611 279.687, 328.925 281, 329.231 281 C 329.537 281, 331.969 277.807, 334.635 273.905 L 339.483 266.810 337.001 264.800 C 333.139 261.672, 325.592 258.129, 319.307 256.492 C 311.048 254.341, 295.059 254.618, 287.403 257.045 M 187.505 302.223 C 178.252 327.675, 170.473 349.078, 170.220 349.784 C 169.859 350.791, 172.195 351.007, 181.049 350.784 L 192.337 350.500 195.752 340.250 L 199.167 330 217.387 330 L 235.606 330 239 340.500 L 242.394 351 253.805 351 C 265.141 351, 265.213 350.985, 264.649 348.750 C 264.337 347.512, 256.674 326.250, 247.621 301.500 L 231.160 256.500 217.745 256.223 L 204.329 255.946 187.505 302.223 M 349 303.500 L 349 351 359.500 351 L 370 351 370.018 320.250 L 370.035 289.500 377.028 310.500 C 380.874 322.050, 385.386 335.887, 387.054 341.250 L 390.086 351 399.482 351 L 408.879 351 418.836 320.750 L 428.793 290.500 428.896 320.750 L 429 351 440 351 L 451 351 451 303.500 L 451 256 436.245 256 L 421.489 256 411.045 289 C 405.301 307.150, 400.354 322, 400.051 322 C 399.748 322, 394.775 307.150, 389 289 L 378.500 256.001 363.750 256 L 349 256 349 303.500 M 211.243 294.760 L 205.154 313 217.077 313 C 223.635 313, 229 312.653, 229 312.228 C 229 311.804, 226.375 303.596, 223.167 293.989 L 217.333 276.521 211.243 294.760 M 196.123 422.943 C 192.123 423.957, 188.405 426.577, 185.562 430.385 C 182.409 434.608, 182.648 443.926, 186 447.517 C 189.338 451.093, 194.420 453.595, 201.811 455.302 C 209.564 457.093, 213 459.304, 213 462.500 C 213 466.485, 209.112 468.304, 201.615 467.826 C 196.891 467.526, 194.216 466.747, 191.318 464.829 L 187.403 462.238 184.030 466.257 C 180.761 470.150, 180.716 470.321, 182.578 471.750 C 188.014 475.922, 193.420 477.435, 203 477.468 C 211.315 477.496, 213.055 477.188, 216.949 475 C 222.285 472.001, 225.283 467.260, 225.398 461.639 C 225.584 452.462, 220.717 447.680, 208 444.547 C 199.431 442.436, 197.330 441.486, 196.084 439.156 C 195.273 437.642, 195.496 436.639, 197.095 434.607 C 199.897 431.044, 206.699 431.001, 213.581 434.504 L 218.500 437.009 221.223 433.754 C 222.721 431.964, 223.958 429.913, 223.973 429.195 C 223.988 428.477, 221.455 426.724, 218.344 425.300 C 212.207 422.490, 202.126 421.421, 196.123 422.943 M 236.012 448.750 C 230.887 462.913, 226.490 475.063, 226.240 475.750 C 225.907 476.667, 227.486 477, 232.163 477 L 238.540 477 240.520 471.250 L 242.500 465.500 252.917 465.500 L 263.333 465.500 265.250 471.250 L 267.167 477 273.583 477 C 277.113 477, 280 476.710, 280 476.357 C 280 476.003, 276.114 465.090, 271.364 452.107 C 266.614 439.123, 262.295 427.262, 261.766 425.750 C 260.829 423.070, 260.608 423, 253.068 423 L 245.331 423 236.012 448.750 M 284 450 L 284 477 289.966 477 L 295.932 477 296.216 466.250 L 296.500 455.500 307.250 455.216 L 318 454.932 318 450.500 L 318 446.068 307.250 445.784 L 296.500 445.500 296.202 439.250 L 295.905 433 308.952 433 L 322 433 322 428 L 322 423 303 423 L 284 423 284 450 M 363.400 429.425 C 359.922 430.942, 359 432.637, 359 437.509 C 359 439.932, 359.726 441.426, 361.635 442.927 C 367.330 447.408, 375 443.965, 375 436.927 C 375 433.172, 372.412 429, 370.082 429 C 369.577 429, 368.564 428.791, 367.832 428.536 C 367.099 428.282, 365.105 428.681, 363.400 429.425 M 362.986 431.810 C 358.589 435.371, 361.326 443, 367 443 C 372.674 443, 375.411 435.371, 371.014 431.810 C 369.785 430.815, 367.978 430, 367 430 C 366.022 430, 364.215 430.815, 362.986 431.810 M 364 437 C 364 440.784, 365.964 442.960, 366.032 439.250 C 366.062 437.583, 366.127 437.583, 367.392 439.250 C 369.232 441.673, 371.389 441.596, 370.082 439.153 C 369.416 437.909, 369.441 436.959, 370.160 436.240 C 371.798 434.602, 370.207 433, 366.941 433 C 364.177 433, 364 433.240, 364 437 M 249.571 444.750 C 248.008 449.563, 246.517 454.063, 246.257 454.750 C 245.907 455.678, 247.644 456, 253 456 C 258.356 456, 260.093 455.678, 259.743 454.750 C 259.483 454.063, 257.992 449.563, 256.429 444.750 C 254.867 439.938, 253.323 436, 253 436 C 252.677 436, 251.133 439.938, 249.571 444.750 M 336.685 438.984 C 322.688 441.635, 317.158 462.092, 327.614 472.547 C 333.948 478.881, 347.186 479.789, 355.265 474.444 L 359.396 471.710 355.521 468.456 L 351.645 465.202 348.942 467.201 C 343.857 470.961, 336.063 469.174, 334.693 463.935 C 334.212 462.095, 334.824 462, 347.094 462 L 360 462 360 457.468 C 360 452.587, 357.964 446.722, 355.214 443.684 C 351.495 439.574, 343.831 437.630, 336.685 438.984 M 337.167 448.750 C 336.038 449.712, 334.975 451.400, 334.807 452.500 C 334.529 454.309, 335.144 454.528, 341.250 454.796 C 347.480 455.069, 348 454.934, 348 453.046 C 348 450.275, 344.538 447, 341.611 447 C 340.297 447, 338.297 447.788, 337.167 448.750 M 270.340 489.435 C 263.924 491.441, 260.380 494.526, 257.312 500.774 C 254.797 505.895, 254.500 507.559, 254.500 516.527 C 254.500 525.321, 254.815 527.165, 257.059 531.527 C 265.863 548.639, 295.004 543.320, 294.998 524.602 C 294.995 514.258, 288.989 508, 279.064 508 C 275.440 508, 272.051 508.699, 269.588 509.955 L 265.753 511.910 266.331 508.349 C 267.867 498.885, 275.064 495.398, 286.536 498.560 C 288.141 499.002, 288.938 498.353, 290.302 495.492 C 291.254 493.496, 291.797 491.480, 291.508 491.012 C 290.823 489.905, 281.806 487.981, 277.701 488.067 C 275.940 488.104, 272.628 488.719, 270.340 489.435 M 271.315 516.969 C 267.292 518.660, 265.567 525.551, 268.282 529.087 C 273.380 535.727, 283 532.656, 283 524.388 C 283 518.511, 276.885 514.629, 271.315 516.969" stroke="none" fill="#043c44" fill-rule="evenodd"/><path d="M 310.437 136.250 L 307.500 139.500 310.995 136.500 C 312.917 134.850, 314.680 133.387, 314.912 133.250 C 315.144 133.113, 314.893 133, 314.354 133 C 313.815 133, 312.052 134.463, 310.437 136.250 M 365.462 142.250 L 360.500 147.500 365.750 142.538 C 368.637 139.808, 371 137.446, 371 137.288 C 371 136.541, 370.074 137.372, 365.462 142.250 M 232.971 149.750 L 226.500 156.500 233.250 150.029 C 236.963 146.470, 240 143.432, 240 143.279 C 240 142.543, 238.982 143.480, 232.971 149.750 M 159.985 161.750 L 147.500 174.500 160.250 162.015 C 172.093 150.418, 173.453 149, 172.735 149 C 172.589 149, 166.852 154.738, 159.985 161.750 M 290.966 154.750 L 285.500 160.500 291.250 155.034 C 296.592 149.956, 297.458 149, 296.716 149 C 296.560 149, 293.972 151.588, 290.966 154.750 M 281.995 188.750 L 247.500 223.500 282.250 189.005 C 314.546 156.947, 317.450 154, 316.745 154 C 316.604 154, 300.967 169.637, 281.995 188.750 M 222.491 177.250 L 200.500 199.500 222.750 177.509 C 234.988 165.413, 245 155.401, 245 155.259 C 245 154.549, 242.926 156.576, 222.491 177.250 M 343.462 163.250 L 338.500 168.500 343.750 163.538 C 346.637 160.808, 349 158.446, 349 158.288 C 349 157.541, 348.074 158.372, 343.462 163.250 M 170.477 168.250 L 162.500 176.500 170.750 168.523 C 178.412 161.115, 179.456 160, 178.727 160 C 178.576 160, 174.864 163.713, 170.477 168.250 M 317 174.500 C 312.903 178.625, 309.775 182, 310.050 182 C 310.325 182, 313.903 178.625, 318 174.500 C 322.097 170.375, 325.225 167, 324.950 167 C 324.675 167, 321.097 170.375, 317 174.500 M 279.487 183.250 L 265.500 197.500 279.750 183.513 C 292.988 170.520, 294.453 169, 293.737 169 C 293.592 169, 287.179 175.412, 279.487 183.250 M 268.462 176.250 L 263.500 181.500 268.750 176.538 C 271.637 173.808, 274 171.446, 274 171.288 C 274 170.541, 273.074 171.372, 268.462 176.250 M 167.469 179.250 L 161.500 185.500 167.750 179.531 C 171.188 176.249, 174 173.436, 174 173.281 C 174 172.542, 173.013 173.444, 167.469 179.250 M 196.481 185.250 L 186.500 195.500 196.750 185.519 C 202.387 180.029, 207 175.417, 207 175.269 C 207 174.545, 205.752 175.730, 196.481 185.250 M 220.481 187.250 L 210.500 197.500 220.750 187.519 C 226.387 182.029, 231 177.417, 231 177.269 C 231 176.545, 229.752 177.730, 220.481 187.250 M 181 185.500 C 176.903 189.625, 173.775 193, 174.050 193 C 174.325 193, 177.903 189.625, 182 185.500 C 186.097 181.375, 189.225 178, 188.950 178 C 188.675 178, 185.097 181.375, 181 185.500 M 322.462 183.250 L 317.500 188.500 322.750 183.538 C 325.637 180.808, 328 178.446, 328 178.288 C 328 177.541, 327.074 178.372, 322.462 183.250 M 236.483 192.250 L 225.500 203.500 236.750 192.517 C 242.938 186.476, 248 181.414, 248 181.267 C 248 180.546, 246.684 181.801, 236.483 192.250 M 245.966 197.750 L 240.500 203.500 246.250 198.034 C 251.592 192.956, 252.458 192, 251.716 192 C 251.560 192, 248.972 194.588, 245.966 197.750 M 287 203.500 C 282.903 207.625, 279.775 211, 280.050 211 C 280.325 211, 283.903 207.625, 288 203.500 C 292.097 199.375, 295.225 196, 294.950 196 C 294.675 196, 291.097 199.375, 287 203.500 M 143.469 204.250 L 137.500 210.500 143.750 204.531 C 147.188 201.249, 150 198.436, 150 198.281 C 150 197.542, 149.013 198.444, 143.469 204.250 M 301.462 203.250 L 296.500 208.500 301.750 203.538 C 306.628 198.926, 307.459 198, 306.712 198 C 306.554 198, 304.192 200.363, 301.462 203.250 M 129.982 209.750 L 119.500 220.500 130.250 210.018 C 136.162 204.253, 141 199.415, 141 199.268 C 141 198.546, 139.718 199.765, 129.982 209.750 M 108.984 211.750 L 97.500 223.500 109.250 212.016 C 120.164 201.350, 121.454 200, 120.734 200 C 120.587 200, 115.300 205.287, 108.984 211.750 M 150.469 217.250 L 144.500 223.500 150.750 217.531 C 156.556 211.987, 157.458 211, 156.719 211 C 156.564 211, 153.751 213.813, 150.469 217.250 M 224.462 218.250 L 219.500 223.500 224.750 218.538 C 229.628 213.926, 230.459 213, 229.712 213 C 229.554 213, 227.192 215.363, 224.462 218.250 M 162 218.500 C 159.571 220.975, 157.809 223, 158.084 223 C 158.359 223, 160.571 220.975, 163 218.500 C 165.429 216.025, 167.191 214, 166.916 214 C 166.641 214, 164.429 216.025, 162 218.500 M 188.437 220.250 L 185.500 223.500 188.750 220.563 C 191.779 217.825, 192.460 217, 191.687 217 C 191.515 217, 190.052 218.463, 188.437 220.250 M 50 421.878 C 50 437.733, 50.198 439.905, 51.750 441.079 C 53.239 442.206, 53.313 442.194, 52.250 441.002 C 51.352 439.995, 51 434.726, 51 422.300 L 51 405 274.543 405 L 498.085 405 497.793 423.406 C 497.632 433.529, 497.837 441.603, 498.250 441.347 C 498.662 441.091, 499 432.584, 499 422.441 L 499 404 274.500 404 L 50 404 50 421.878" stroke="none" fill="#dbeded" fill-rule="evenodd"/></svg>